
<svg id="Layer_1" xmlns="http://www.w3.org/2000/svg" viewBox="0 0 2655.49 2898.18"><path d="M1281.34,2898.18l-5.36-3.22c-1.31-.66-2.57-1.42-3.77-2.27-179.26-107.93-342.26-233.69-484.49-373.8-121.6-119.79-230.58-252.57-324.29-395.08-12.23,10.89-23.99,21.37-35.51,31.67l-22.95,20.49-30.7,1.78c-71.03,4.1-142.98,8.75-213.88,13.81l-39.87,2.85-28.42-28.11c-20.86-20.62-41.76-41.61-62.12-62.37l-29.97-30.56,66.62-518.02,23.98-21.82c20.6-18.76,43.27-39.34,67.45-61.23-46.6-149.83-81.66-307.43-104.26-468.77-18.8-134.23-29.08-271.35-30.54-407.55-2.49-232.31,21.23-379.57,22.24-385.73l2.82-17.17,16.38-5.86C582.15,2.13,1304.7,0,1335.2,0c1.37,0,188.29,6.5,441.1,38.41,146.23,18.46,284.24,41.65,410.21,68.92,157.97,34.21,297.47,75.01,414.62,121.28l16.18,6.39,2.26,17.25c.78,5.97,19.04,148.89,10.14,374.14-5.22,132.05-18.79,264.95-40.35,395.01-25.75,155.38-63.03,307.14-110.87,451.41l112.32,85.59,64.68,526.44-139.28,107.72-253.05-17.61-92.2-69.65c-100.84,150.13-218.44,288.87-349.86,412.7-151.38,142.64-324.72,268.9-515.23,375.29-1.16.75-2.36,1.42-3.6,2.01l-5.12,2.85s-7.46.02-7.6.02h-8.21Z" style="fill:#fbfbfb; stroke-width:0px;"/><path d="M2582.96,1736.79l-19.95-162.43-119.26-90.87c221.8-652.16,146.53-1227.4,146.53-1227.4C2083.21,55.82,1335.24,29.54,1335.2,29.54c-32.27,0-747.77,2.07-1260.56,185.49,0,0-97.35,592.84,117.27,1266.46l-9.05,8.19c-24.69,22.34-49.05,44.44-72.38,65.69l-15.94,14.51-30.83,239.76-32.57,253.27,19.93,20.32c20.16,20.55,40.95,41.43,61.81,62.05l18.9,18.7,26.52-1.89c71.08-5.08,143.18-9.73,214.27-13.84l20.42-1.18,15.26-13.62c19.89-17.76,40.06-35.73,61.28-54.59,184.06,288.88,446.6,565.29,819.45,789.45,0,0,.34.41.52.31.17.1.53-.29.53-.29,396.86-221.3,675.32-503.49,870.11-800.1,4.2.47,8.4.93,12.62,1.41l101.22,76.46,233.07,16.22,117.08-90.55-41.16-334.98Z" style="fill:#c9c7ee; stroke-width:0px;"/><path d="M2590.28,256.09C2083.21,55.82,1335.24,29.54,1335.2,29.54c-32.27,0-747.77,2.07-1260.56,185.49,0,0-287.44,1750.36,1214.33,2653.27,0,0,.34.41.52.31.17.1.53-.3.53-.3C2820.45,2014.89,2590.28,256.09,2590.28,256.09Z" style="fill:#1f2128; stroke-width:0px;"/><path d="M775.14,242.65s-147.19,24.15-240.08,172.41c-92.89,148.26-124.36,255.53-119.37,307.34,76.6-106.75,204.71-187.25,204.71-187.25,0,0-170.57,231.64-134.91,402.59,78.39-124.18,187.47-241.1,187.47-241.1,0,0-82.64,126.11-82.1,212.81.54,86.71,1.07,173.41,39.09,245.38,18.05-116.19,30.67-237.32,133.36-323.59-13.37,67.4-59.79,189.02-7.07,288.06,0,0,31.56-133.51,88.72-163.47,6.92,23.1,13.37,50.12,6.12,62.16s-3.41,95.13-8.74,106.43c-5.33,11.3-29.65,48.2-38.37,56.41s-48.32,73.46-44.13,86.6c4.18,13.14,25.04,70.4,39.21,74.29,14.17,3.9,57.7,10.02,83.74,3.29,26.03-6.73,46.02-17.74,55.77-17.86s49.68-8.8,55.76-11.03c6.08-2.23,48.02-58.92,62.54-73.03,14.53-14.11,44.14-30.23,57.5-22.6,13.36,7.62,53.44,20.95,61.43,24.92,7.99,3.97,33.95,21.42,38.55,27.27s14.85,30.54,12.64,38.88c-2.22,8.34-18.85,42.5-18.85,42.5l61.73,3.22s14.92,69.56,16.65,88.13c1.73,18.57,1.75,84.91,1.75,84.91,0,0-28.89-24.68-34.69-18.78-5.8,5.91-81.85,96.15-120.95,104.03-39.1,7.88-84.93,10.86-84.93,10.86,0,0-26.96-10.9-25.83-23.96,13.85-28.83,58.37-88.13,62.62-99.6,4.24-11.47,11.56-87.7,6.36-97-5.2-9.3-14.91-27.06-24.32-29.02-9.41-1.95-34.13,12.2-42.79,26.48-8.66,14.28-16.2,38.91-16.5,46.51-.3,7.6-19.53-42.68-40.01-63.42-20.47-20.74-29.01-27.28-48.23-30.3-19.22-3.01-13.36-7.62-27.5-3.93-14.14,3.69-38.84,32.15-43.08,43.62-4.24,11.47-18.57,20.37-31.18,19.65-12.61-.72-32.1-.25-43.13,5.03s-50.54,18.38-55.81,35.75c-5.27,17.37,12.76,60.34,19.71,65.22,6.95,4.88,20.33,8.17,20.33,8.17,0,0-2.28-30.68,2.6-32.86s38.13-5.45,47.92-.05c9.79,5.4,22.8,33.64,28.36,45.96,5.56,12.32,46.58,93.03,51.7,100.6,5.12,7.57,28.99,31.51,31.77,42.44,2.78,10.93-5.39,52.29-5.39,52.29l-5.39,12.5s-29.39-21.41-31.5-24.78c-2.11-3.37-14.36-29.26-14.36-29.26,0,0-.29-1.5-6.66,10.72-6.37,12.22-20.58,28.49-13.76,58.75,6.82,30.26,2.5,44.77,27.67,59.22,25.17,14.45,58.89,30.89,58.89,30.89,0,0,65.76-26.89,71.05-53.15,5.29-26.26,3.85-99.7,3.85-99.7,0,0,31.33-2.31,37.7,4.11s47.56,34.45,47.65,36.39-8.97,45.3-11.22,52.77c-2.26,7.48,21.01-.54,21.01-.54l96.33-52.69s-2.05,26.11-4.65,33.06-21.56,54.34-26.07,62.35c-4.51,8.01,120.31-42.96,136.85-50.88,16.55-7.92,57.82-29.67,57.82-29.67,0,0-27.23,44.19-33.33,52.93-6.1,8.74-20.18,27.93-20.18,27.93,0,0-.14,11.06,54.21-2.18,54.35-13.24,65.94-4.13,65.94-4.13,0,0-100.25,92.23-140.41,124.01-40.16,31.78-250.41,70.98-283.46,69.04-33.05-1.94-131.51,6.94-131.51,6.94,0,0,195.64,132.77,213.11,135.43,17.47,2.66,175.37-43.23,202.81-59.24,27.45-16.01,89.12-60.93,89.12-60.93,0,0-17.01,54.13-33.6,80.04-16.58,25.92-91.59,91.83-122.02,118.39-30.43,26.56-105.77,76.01-117.05,85.2-11.28,9.19-125.14,79.07-125.14,79.07,0,0,55.65,3.07,82.58,3.99,26.93.92,135.7-10.17,182.92-20.59,47.22-10.42,134.11-53.9,134.11-53.9,0,0-38.82,88.96-51.55,109.06-12.73,20.1-170.71,204.98-170.71,204.98,0,0,194.3-74.67,213.82-88.59,19.52-13.91,65.15-40.09,92.72-62.83,27.57-22.74,80.67-112.36,80.67-112.36,0,0,119.48-18.53,152.68-18.11,33.19.42,82.75-10.98,101.81-20.97,19.05-9.99,69.08-67.59,88.12-91.89,19.04-24.3,67.52-101.34,86.2-133.43,18.68-32.09,60.28-117.27,72.32-152.3,12.04-35.03,13.41-104.05,5.16-127.73-8.25-23.69-7.63-66.65-28.69-100.15-21.06-33.5-74-123.42-87.79-140.35-13.79-16.93-56.31-92.37-56.31-92.37,0,0,20.59-28.27,24.97-64.9,4.38-36.63,19.83-96.32,19.83-96.32l34.98,62.56,56.37-112.75,41.5,53.59s34.12-143.81,37.93-155.27c3.81-11.45,33.27-68.32,33.27-68.32l49.93-64.32,58.12,75.37s23.8-132.5,12.73-174.92-41.17-215.36-59.07-236.65c-17.9-21.29-66.55-145.23-88.82-176.73-22.27-31.5-69.07-115.2-89.68-138.96-20.61-23.77-179.52-168.64-198.71-189.87-19.19-21.23-146.75-88.19-146.75-88.19,0,0-48.83-61.92-72.2-60.85-23.37,1.08-82.44,17.69-156.03,39.3-73.59,21.61-290.53,150.46-327.98,166.06-37.44,15.61-70.03,42.26-70.03,42.26,0,0-33.94-40.06-69.4-56.64s-192.83-24.92-192.83-24.92Z" style="fill:#fbfbfb; stroke-width:0px;"/><path d="M1041.97,1017.62s-17.42,10.24-30.95,19.97c-13.54,9.73-55.42,46.47-55.42,46.47,0,0,13.99,7.16,22.65,4.48,8.66-2.68,41.12-18.16,53.19-31.4,12.07-13.24,10.53-39.52,10.53-39.52Z" style="fill:#75b6dc; stroke-width:0px;"/><path d="M853.01,1130.42s19.49,6.58,31.06,3.44c11.56-3.14,64.46-12.74,91.48-5.2,27.02,7.53,44.24,14.22,48.05,19.25s23.34,26.57,20.86,43.27c-2.48,16.7-18.32,110.34-50.17,124.93-31.85,14.59-58.7,15.4-58.7,15.4,0,0,4.75-37.95.5-45.56-4.25-7.61-11.9-4.22-8.73-19.98,3.17-15.76,12.52-38.74,8.55-40.29-3.97-1.55-.1-2.16-10.92-1.66s-49.04,17.88-62.26,41.47c-13.22,23.59-14.4,54.44-4.14,70.01-41.85,4.54-63.2,2.49-69.48-1.99-6.28-4.48-20.42-28.98-22.02-35.41-1.6-6.43-9.25-31.23-3-46.26,6.24-15.03,31.57-58.27,42.9-75.7,11.34-17.44,46.02-45.71,46.02-45.71Z" style="fill:#75b6dc; stroke-width:0px;"/><path d="M1294.71,2524.81s68.43-30.05,101.99-73.23l-15.47,40.61s110.84-78.84,91.53-121.31c50.01,12.43,62.61,22.26,62.61,22.26,0,0-51.73,156.77-255.74,227.77-94.99,27.81-128.34,38.02-128.34,38.02,0,0,117.21-95.83,143.41-134.12Z" style="fill:#9ecce6; stroke-width:0px;"/><path d="M1043.74,2372.48s133.87,11.38,192.95-19.32l-40.27,1.21c68.74-27.93,183.64-37.76,321.19-308.2-103.67,252.84-128.81,309.51-212.78,331.6-83.98,22.09-279.29,37.19-279.29,37.19l-32.14-1.12,50.34-41.35Z" style="fill:#9ecce6; stroke-width:0px;"/><path d="M1585.35,1832.28s-74.79,14.51-90.42,13.93c-15.64-.58-77.12,6.16-77.12,6.16,0,0-105.36,84.88-123.17,93.5s-165.5,78.55-211.64,79.38c-46.15.83-144.01,8.6-166.88,6.41-22.87-2.2-42.81,2.63-42.81,2.63l66.42,43.77s122.8,29.89,156.87,53.9c46.19,4.8,183.94-26.71,289.44-108.34l-33.21,97.81s101.73-78.85,105.56-94.64l-29.73,18.29s79.31-85.62,121.21-79.75l15.97-34.56-13.45,11.68s25.54-59.72,40.49-74.07c-.02-28.62-7.52-36.08-7.52-36.08ZM1207.36,2084.24s-65.84,18-141.14.34c-77.82-18.25-82.49-25.46-82.49-25.46,0,0,56.08,17.09,78.79,8.72l-24.51-9.6s209.58,23.82,317.87-77.46c0,0-2.48,68.41-148.52,103.46Z" style="fill:#9ecce6; stroke-width:0px;"/><path d="M1581.21,1897.52s16.42,102.02,12.77,149.67l-7.77-27.29s8.21,64.99-6.67,94.95c0,0,65.81-96.06,73.76-163.43,7.95-67.37,0-112.53,0-112.53,0,0-69.78,38.35-72.1,58.62Z" style="fill:#9ecce6; stroke-width:0px;"/><path d="M1415.05,2313.7s80.08,43.79,171.71,27.84c0,0,99.14-121.02,128.05-128.86,0,0-40.22,9.34-50.31,16.31,0,0,144.54-161.09,135.73-351.91,0,0-30.35-133.99-54.04-139.83-21.34,26.14-31.47,50.89-31.47,50.89,0,0,34.81,40.02,36.81,83.3,0,0-3.12,120.27-56.68,218.58-36.53,67.04-43.05,138.16-120.25,175.55-77.2,37.39-124.44,47.38-124.44,47.38l-35.09.75Z" style="fill:#9ecce6; stroke-width:0px;"/><path d="M1790.91,1785.49s69.29,73.12,76.88,124.81c-3.07,46.11-22.62,111.19-22.79,145.03,7.62-22.9,13.67-23.18,13.67-23.18,0,0-16.19,25.03-4.36,55.71,30.5-34.37,91.52-140.39,94.34-154.4,2.82-14.01-31.92-127.75-36.73-137.94-4.81-10.19-63.21-91.62-75.77-100.58s-45.25,90.56-45.25,90.56Z" style="fill:#c9c7ee; stroke-width:0px;"/><path d="M1618.57,2340.07s78.46,8.73,111.67-4.51c-22.93-3.49-35.47-7.47-35.47-7.47,0,0,124.89-14.23,164.16-93.45l-4.88,21.04,46.02-45.71s-56.08,137.89-139.68,158.66c-83.6,20.77-146.18-10.16-146.18-10.16l4.35-18.41Z" style="fill:#9ecce6; stroke-width:0px;"/><path d="M1095.45,1731.65s-.07-29.59,32.88-48.68c0,0,71.97-.29,85.98,2.53,0,0-11.98,22.24,3.11,29.78,0,0,39.5-50.83,107.13-23.16,0,0-40.85-95.68-108.37-116.42,13.67-27.95,49.29-64.29,49.29-64.29,0,0,36.78-20.56,24.35-64.22-12.42-43.66-16.61-77.94-16.61-77.94l-28.27-20.49-42.44,3.59s69.77-31.52,86.13-67.08c0,0-2.58-32.4,50.32-69.97,0,0-21.27,46.52-8.6,67.4,0,0,20.84-25.36,16.56-40.44,0,0,24.33,47.88,14.23,92.14-9.15,40.12,22.63,67.47,22.63,67.47,0,0-13.94-38.82.84-56.85,0,0,6.27,41.77,14.55,42.69,0,0,3.29-13.16.26-22.56,0,0,22.16,38.44,21.19,64.5-23.49-11.06-38.94-16.85-49.36-7.69-10.42,9.15-29.66,33.89-20.58,61.45s14.95,49.07,28.87,61.76c13.92,12.69,34.5,35.81,45,51.91,10.5,16.1,31.27,36.28,35.98,53.63,4.7,17.35,13.73,93.03,8.18,106.63-5.55,13.59-29.89,64.15-69.61,70.22-39.72,6.06-84.05,11.04-85.01,11.41s25.22-52.55,31.83-71.4c0,0-79.35,49.52-117.26,52.58-37.91,3.05-62.12,7.1-62.12,7.1,0,0,26.45-39.93,27-56.21.55-16.29,1.56-29.67,1.56-29.67,0,0-35.77,28.32-53.55,37.6s-65.13,26.43-65.13,26.43c0,0,19.49-64,19.04-73.73Z" style="fill:#9ecce6; stroke-width:0px;"/><path d="M1558.14,1623.43c14.95,4.71,30.98,11.1,44.68,14.06,11.05,2.39,21.95-4.64,24.34-15.69,2.39-11.05-4.63-21.95-15.69-24.34-1.77-.38-3.53-.61-5.24-.64,46.64-25.25,78.98-5.93,78.98-5.93,0,0-29.93-22.36-29.56-35.55l-1.33,6.4s-5.17-13.26-1.2-18.97,21.9,5.82,21.9,5.82c0,0-3.94-29.04-.05-33.99l-6.26,14.6s1.09-37.34,16.19-43.9c16.4-6.4,27.48,8.05,30.26,16.6,2.78,8.54,11.97,57.34,12.25,82.05s38.35,93.2,37.65,106.24c-.7,13.04-54.38,108.97-54.82,113.55-.44,4.57-31.17,57.38-31.17,57.38,0,0-16.33-15.51-20.81-14-4.48,1.51-57.99,26.1-57.99,26.1,0,0-1.14,17.62-4.19-34.28-3.05-51.9-47.12-161.09-48.66-166.23-1.54-5.13,10.73-49.28,10.73-49.28Z" style="fill:#c9c7ee; stroke-width:0px;"/><path d="M1223.62,1201.98c8.84-1.06,22.41,6.34,22.41,6.34-1.5-11.31-20.12-55.45-77.68-52.79,7.06-9.11,25.93-12.42,25.93-12.42-18.64-31.5-67.17-28.28-67.17-28.28,21.7-23.12,52.01-14.76,52.01-14.76-37.38-48.69-94.01-28.51-94.01-28.51,17.74-.82,26.26,16.89,26.26,16.89-28.18,1.3-48.4,5.92-62.89,11.63,1.5-7.01,1.41-13.31,1.3-15.74-.12,1.14-.69,3.42-2.74,7.84.75-4.91-1.53-11.96-1.53-11.96-10.16,26.49-34.64,38.68-34.64,38.68,0,0,2.17,2.02,5.71,3.64-3.23,4.54-4,7.66-4,7.66,0,0,27.55,56.62,29.57,76.91,2.02,20.29,13.88,9.55,32.5,13.46,18.61,3.91,28.55,3.23,35.72,8.11,7.16,4.87,63.28,8.57,78.56,10.9,15.29,2.33,47.3,38.14,47.3,38.14,0,0,14.67-20.41,10.81-33.46-7.06-23.88-23.42-42.28-23.42-42.28Z" style="fill:#9ecce6; stroke-width:0px;"/><path d="M1049.72,1083.28s.03.38.07,1.06c.09-.83-.07-1.06-.07-1.06Z" style="fill:#9ecce6; stroke-width:0px;"/><path d="M424.84,704.63s20.96-67.32,51.55-109.06c0,0-16.25,14.41-22.48,27.38,0,0,36.11-131.22,188.44-231.93,98.42-66.13,149.28-72.81,149.28-72.81,0,0-31.99,20.99-33.77,29.31,0,0,31.26-27.46,69.92-16.67,0,0,42.36,29.92,47.3,80.43,4.94,50.51,10.16,93.2,4.89,105.8s-30.55,56.7-30.55,56.7c0,0-79.31,10.39-141.47,63.56,0,0-172.59,178.4-195.46,265.32-19.61-30.32-4.44-96.07-5.13-129.86-.69-33.79,85.88-206.05,99.84-223.17,13.95-17.12,17.95-43.33,17.95-43.33,0,0-149.53,104.91-200.29,198.33Z" style="fill:#9ecce6; stroke-width:0px;"/><path d="M1848.33,1075.99c1.36,3.84,2.8,6.3,4.24,7.73-4.63-24.71-1.12-66.55.39-76.47.73-4.79,2.59-17.87,4.61-33.34-3,15.96-15.39,84.75-9.24,102.07Z" style="fill:#c9c7ee; stroke-width:0px;"/><path d="M1913.97,1257.69c-42.22-40.98-104.34-132.43-104.34-132.43-.4,132.07,103.93,195.01,98.7,207.5,9.46,21.68-25.02,124.96-25.02,124.96,16.73-163.61-132.4-293.97-132.4-293.97,24.32,56.99,22.57,94.36,22.57,94.36-102.9-73.09-116.81-228.78-116.81-228.78,35.02,7.06,64.04,72.06,64.04,72.06,33.07-44.46,28.56-104.53,28.56-104.53,17.63,6.12,33.11,59.62,33.11,59.62,26.78-82.11-45.64-161.81-45.64-161.81,34.54-3.33,60.34,20.2,60.34,20.2,5.07,15.81-1.9,43.45-1.9,43.45l6.3-13.73s.71,6.04-1.6,21.76c12.03-11.83,10.85-37.36,10.85-37.36l47.27,41.45c3.39-26.21,7.05-57.8,6.58-67.79-.76-16.44-3.56-77.03-10.7-100.11-7.14-23.09-21.47-89.21-38.47-100.56-17-11.36-36.1-30.42-70.7-9.74-34.6,20.68-50.3,75.18-65.1,111.42-14.8,36.24-115.48,241.24-115.48,241.24,0,0,5.22,47.24,53.3,74.29,0,0-28.55,15.63-42.37-1.95,0,0,17.21,45.3,48.07,67.06,17.01,11.99,29.45,29.43,35.21,49.43,10.79,37.49,19.77,95.98-4.6,150.47,0,0-33.75-21.86-36.09-44.3,0,0-8.9,60.69,37.78,94.96,44.62,8.35,94.25-15.63,96-15.28,1.75.35,122.82,63.06,122.82,63.06,0,0,32.64-25.58,31.08-59.33-.93-20.06,18.94-47.51,35.89-66.51-1.07-19.53,5.63-67.17-27.28-99.11Z" style="fill:#9ecce6; stroke-width:0px;"/><path d="M1903.43,1048.29s64.46,24.78,91.09,75.58c23.71,45.23,43.61,136.75,43.61,136.75l16.68-51.94s2.3,63.86-7.45,120.25c-29.88-27.24-48.72-82.96-54.54-96.35-5.82-13.39-3.55-48.62-27.64-77.43-24.1-28.81-63.77-56.9-65.75-57.46-1.98-.56-22.82-15.21-22.82-15.21l26.82-34.2Z" style="fill:#75b6dc; stroke-width:0px;"/><path d="M1994.42,887.1s88.09,62.28,101.1,104.61c13.01,42.33,16.63,59.51,16.63,59.51l-4.77-37.51s20.76,36.34,25.54,111.57c-21.61,10.97-30.88-20.69-30.88-20.69,0,0-39.02-74.95-40.15-80.54s-30.7-44.98-44.05-61.71c-13.35-16.73-36.12-40.4-36.12-40.4,0,0,6.31-32.38,12.7-34.85Z" style="fill:#75b6dc; stroke-width:0px;"/><path d="M1517.54,899.38c-1.52-1.38-75.73,12.61-80.51,59.66-5.63,47.09,5.67,80.4,5.67,80.4,0,0-43.95-29.19-36.84-65.3,0,0-41.65-14.55-96.54,27.01,0,0,8.28-27.27,34.87-38.47,0,0-113.88,20.22-150.62-.85,18.92-5.75,19.87-6.45,19.87-6.45l-17.54.49s80.04-48.58,94.82-94.8c74.24-16.87,137.29-31.93,161.4-45.18,24.11-13.26,52.49-18.47,56.01-7.79,3.53,10.68,9.42,91.28,9.42,91.28Z" style="fill:#9ecce6; stroke-width:0px;"/><path d="M1328.42,635.56s4.6-238.29,359.02-395.16l-30.93,34.6,24.21-18.03s-44.14,79.45-89.38,114.06c-45.24,34.61-217.93,154.47-262.93,264.53Z" style="fill:#9ecce6; stroke-width:0px;"/><path d="M1623.42,93.74s-4.06,71.74-42.06,93.88c0,0,42.41-20.61,67.57-11.14,0,0-24.24,5.67-31.19,24.21,0,0,54.39-38.29,123.76,41.12,0,0,6.21,158-48.19,219.49l23.93-17.15s-46.43,280.98-130.14,468.29l5.57-48.39s-42.28,126.84-70.58,152.44l23.9,29.25s52.47-65.74,65.36-87.15c12.89-21.41,47.85-90.68,62.23-117.36,14.38-26.68,65.96-130.54,83.85-193.81,17.89-63.27,17.96-230.67,17.96-230.67,0,0-.7-90.17,27.89-109.7,0,0,28.42,127.05,72.41,197,0,0-12.58-37.58-7.61-52.12,0,0,74.55,215.12,128.04,246.47l-42.97-14.93-29.76-24.64s18.61,78.93,44.36,110.7c0,0,5.66,47.44-18.93,97.15s-65.14,110.56-65.14,110.56l13.24-46.58s-30.33,75.56-47.46,99.11c1.24,40.92,6.48,69.95,6.48,69.95,0,0,38.22-59.66,58.17-92.45,19.95-32.8,83.58-133.96,83.58-133.96,0,0,9.86-110.39,9.77-112.33s17.05-39.17,17.05-39.17c0,0,108.15,219.64,113.97,270.54l56.99,88.43s25.91-25.91,7.48-129.14l-7.59,32.87s-54.73-199.12-114.38-335.57c-91.32-208.93-133.05-289.17-133.05-289.17,0,0-122.31-131.82-152.53-147.77-30.23-15.95-83.63-45.57-103.27-57.68-19.64-12.1-68.71-60.57-68.71-60.57Z" style="fill:#9ecce6; stroke-width:0px;"/><path d="M840.78,583.94s-198.28,157.47-222.81,414.89c0,0-15.54-26.6-13.88-61.15-20.92,82.28,20.56,191.59,20.56,191.59,0,0,23.59-94.76,36.87-131.15,13.28-36.39,123.2-219.7,171.74-253.16-47.35,87.4-70.17,114.47-79.73,146.79-9.57,32.32-28.41,159.38,3.66,234,29.42-81.37,104.6-227.95,119.19-250.09,14.59-22.14,22.67-30.32,22.67-30.32l-32.9,160.89s69.56-57.2,75.66-65.94,57.45-80.06,45.18-106.16c-12.26-26.1-31.44-60.99-59.76-96.76-28.32-35.77-65.66-97.79-60.9-121.43,4.76-23.64-25.55-31.99-25.55-31.99Z" style="fill:#9ecce6; stroke-width:0px;"/><path d="M1508.4,551.36c-1.11-5.15-55.59-1.77-55.59-1.77,0,0-73.39,21.17-104.61,63.59-31.21,42.42-88.52,111.42-88.52,111.42l-13.31,16.88s-.44-9.52-1.31-14.25c-.87-4.73-1.69-88.17-1.54-89.69.15-1.52,8.24-70.42,7.08-72.1-1.16-1.68,10.76-86.14,9.74-108.21s-47.36-30.12-47.36-30.12c0,0-110.02,49.75-135.68,85.63,24.27-9.79,22.61-7.98,22.61-7.98l-13.08,12.53s56.52-29.61,88.06-1.79c0,0,4.45,46.95-2.3,62.88-6.74,15.92,7.92,37.69,7.92,37.69,0,0,17.1,18.07,51.6,18.76,0,0-77.68,29.28-105.3,65.03,25.86-17.62,31.7-10.9,31.7-10.9l-16,10.28s75.42,3.89,96.38,25.9c7.8,18.72,6.19,21.4,6.19,21.4l23.87-18.45s65.56,18.11,80.48,45.39c0,0-137.9-21.06-222.18,13.19,0,0,97.95-5.83,145.44,43.19-27.43,2.63-61.25,5.56-91.55,7.29l-3.42,18.74,8.11,34.75,102.77-48.39c3.24,2.98,6.27,6.11,9.05,9.4,0,0,103.66-9.13,127.73-13.71,24.07-4.58,71.23-16.3,72.54-63.2,1.3-46.89,11.6-218.23,10.5-223.38Z" style="fill:#9ecce6; stroke-width:0px;"/><path d="M908.36,657.57l5.37,31.84-42.44-36.2c14,29.41,31.27,66.84,77.98,110.88,22.45,35.39,43.06,77.8,58.3,97.91,15.24,20.11,36.9,19.54,51.75,21.89,14.85,2.35,32.55-8.88,32.55-8.88,0,0,27.91-22.1,44.73-36.34-9.49,0-27.94-12.65-33.63-14.47-79.89-25.58-194.6-166.64-194.6-166.64Z" style="fill:#9ecce6; stroke-width:0px;"/><path d="M812.15,1344.15s-29.18-55.24-28.07-72.53c1.32-20.66,53.79-102.98,53.79-102.98,0,0-66.82,46.02-66.76,56.86.07,10.84-11.77,45.64-11.41,53.43s52.45,65.23,52.45,65.23Z" style="fill:#fbfbfb; stroke-width:0px;"/><path d="M862.68,1156.65c-16.94,24.06-25.28,41.17-33.67,73.76,19.36-28.79,40.92-57.42,59.19-70.38,0,0-12.22-11.14-25.52-3.37Z" style="fill:#9ecce6; stroke-width:0px;"/><path d="M902.3,1164.79l-7.62,22.9,4.53-5.2s-2.87,12.93-8.3,22.07c13.47-8.86,24.6-26.07,24.6-26.07l-2.1,6.17s13.32-12.11,9.2-21.46c0,0-14.66-2.79-20.31,1.59Z" style="fill:#9ecce6; stroke-width:0px;"/><path d="M1002.85,1154.07s25.65,85.98-15.93,115.22c8.3-55.02-3.67-88.73-3.67-88.73,0,0,9.44-30.36,19.59-26.49Z" style="fill:#75b6dc; stroke-width:0px;"/><path d="M1015.25,924.97s-81.26,43.22-100.26,82.69c26.36-20.73,35.92-20.31,35.92-20.31,0,0-62.46,46.68-60.9,80.44.92,19.91,16.66,22.65,26.18,22.21s31.35-63.03,60.85-72.2c0,0-21.86,24.43-22.57,37.04,0,0,82.18-79.69,123.09-67.26,0,0-34.23,14.59-45.61,26.61-11.37,12.02-54.79,43.73-63.62,54.33-8.83,10.6-22.23,44.39-40,49.33-17.77,4.94-34.83,15.7-54.63,9.68-19.79-6.02-45.52-18.5-36.79-45.35,8.73-26.86-7.38-42.37,26.15-67.56,33.53-25.18,47.1-50.53,78.95-65.23,31.84-14.7,73.24-24.42,73.24-24.42Z" style="fill:#9ecce6; stroke-width:0px;"/><path d="M984.18,1209.9s-18.19,42.8-57.59,59.41c41.08-1.41,51.05-7.24,54.7-16.35,3.64-9.11,7.7-27.03,6.91-29.92-.78-2.89-4.02-13.15-4.02-13.15Z" style="fill:#75b6dc; stroke-width:0px;"/><path d="M1170.43,820.23s-18.92,78.5-85.46,111.93l17.03-2.2s-4.25,2.96-10.2,4.54c16.94.68,45.46-15.6,45.46-15.6,0,0,34.72-29.9,37.44-41.41,2.72-11.51-4.27-57.26-4.27-57.26Z" style="fill:#75b6dc; stroke-width:0px;"/><path d="M1078.29,1613.73s45.21,91.58,11.52,117.86c-27.59-15.2-71.96-41.78-71.96-41.78,0,0-20.17,13.94-19.46,15.21.71,1.27,4.63,88.47-2.54,109.29-7.17,20.82-83.52,50.69-83.52,50.69,0,0-68.15-70.68-68.83-85.29s-1.31-35.39,5.5-53.43c6.81-18.04,14.86-30.45,14.86-30.45,0,0,17.07,28,22.11,35.08,5.04,7.08,30.3,22.18,31.79,22.92,1.5.74,4.92-37.79,4.62-44.28-.3-6.49,5.58-30.51-4.34-41.1-9.92-10.6-21.01-28.79-37.07-45.61-16.06-16.82-21.98-35.74-27.55-47.19-5.57-11.45-19.88-45.37-24.99-52.73-5.11-7.35-27.07-27.37-37.81-29.91s-28.07-2.17-28.72-2.14-2.17,28.07-2.03,31.1-16.85,10.75-20.82,4.65c-3.97-6.1-21.88-13.73-21.35-35.01s-3.51-43.2,10.35-52.95c13.86-9.75,58.71-24.61,71.8-22.83s35.49-1.42,39.59-1.83c4.1-.41,18.56-11.27,18.74-16.69.18-5.43,12.12-45.01,28.57-45.77,16.44-.76,50.05,10.91,55.97,14.65,5.92,3.74,21.67,20.79,24.44,29.23,2.77,8.44,22.4,43.74,25.48,54.01,3.08,10.27,7.92,44.73,7.92,44.73,0,0,4.6-31.87,13.93-59.84,9.33-27.97,31.82-57.41,51.04-54.4,19.22,3.01,32.81,39.03,32.09,46.87-.72,7.84-13.19,66.52-23.79,90.43s-37.68,57.25-42.62,63.11c-4.93,5.87-5.64,37.55-5.64,37.55,0,0,39.25,3.61,44.83,4.81s7.88-8.98,7.88-8.98Z" style="fill:#3896cd; stroke-width:0px;"/><path d="M1378.93,1409.9s-25.71,25.47-27.86,44.65c-2.15,19.18.47,47.68,3.98,57.93,3.51,10.25,52.27,61.33,55.01,64.24,2.74,2.91,47.74,47.66,48.4,61.94.66,14.28,6.25,50.88,3.8,63.57-2.45,12.69-3.58,53.94-1.82,92.02,1.76,38.08,49.21,51.5,63.35,47.81,14.14-3.69,10.67-125.82,17.16-144.77,6.5-18.95,6.5-47.13,10.78-57.74,4.28-10.61,29.08-46.44,39.36-58.63,10.28-12.18,64.87-60.24,73.77-74.09,8.9-13.85,10.96-44.31,7.35-56.71-3.61-12.41-13.32-18.52-19.19-18.9-5.87-.38-22.45-3.68-31.48-2.12s-26.74,9.04-31.27,16.57c-4.53,7.53-14.92,25.57-18.51,28.83-3.59,3.26-9.84-12.39-10-22.96-.16-10.56,7.8-55.22,2.44-67.98-5.36-12.76-6.92-23.1-21.17-26.56-14.25-3.46-12.86-10.9-29.15-2.12-16.29,8.78-26.26,13.57-28.31,30.15-2.05,16.57,2.12,78.83,3.89,88.94s4.79,23.85-.28,22.13c-5.07-1.72-24.97-19.45-30.84-29.36-5.88-9.92-13.96-25.21-26.47-32.11-12.52-6.9-52.91-24.71-52.91-24.71Z" style="fill:#75b6dc; stroke-width:0px;"/><path d="M935.91,1235.22s10.34-8.61-13.4-1.33c-23.73,7.28-28.73,4.58-42.96,13.37-14.23,8.79-22.06,15.33-25.41,27.19s-9.35,30.03-1.13,45.91c8.21,15.88,35.04,26.35,42.85,26.32s38.76-20,42.73-32.55c3.97-12.54,6.84-27.96,1.26-36.16-5.58-8.2-34.26-2.32-3.93-42.75Z" style="fill:#1f2128; stroke-width:0px;"/><path d="M1629.81,1434.16c-.11-.09-.13-.1-.08-.07s.08.06.08.07Z" style="fill:#fbfbfb; stroke-width:0px;"/><path d="M1644.74,1477.04c-12.88,3.41-52.23,44.41-52.23,44.41,0,0-2.1-.75-4.53-1.77-2.22-.91-4.72-2.04-6.17-2.99-.54-.35-.94-.68-1.11-.98-.28-.44-.51-1.8-.7-3.75-.66-6.32-.99-18.96-1.39-27.55-.52-11.23,20.25-37.96,30-44.68,9.25-6.39,20.48-4.92,20.46-5.4,1.25.9,11.79,8.65,15.49,22.81,1.48,5.62,1.87,12.27.18,19.89Z" style="fill:#fbfbfb; stroke-width:0px;"/><path d="M1966.15,1753.55l6.63,29.77c-19.69-51.47-61.01-150.78-113.38-228.44-74.02-109.76-97.65-100.22-97.65-100.22,0,0,97.79,173.61,150.29,288.28-22.37-32.58-44.78-63.76-40.47-51.38,8.25,23.69,66.36,127.03,70.5,132.04.36.43.85,1.09,1.44,1.9.52,2.67.84,5.05.93,7.1,1.28-.24,2.51-.45,3.72-.63,8.07,11.07,21.17,27.53,27.1,20.03,7.99-10.13,14.66-48.81,14.66-48.81l-23.76-49.64Z" style="fill:#c9c7ee; stroke-width:0px;"/><path d="M915.83,809.87s-199.18,128.46-158.65,315.87c0,0,20.81-98.75,31.4-113.55,10.59-14.8,44.67-84.46,58.52-103.74,13.85-19.29,68.73-98.58,68.73-98.58Z" style="fill:#fbfbfb; stroke-width:0px;"/><path d="M1031.44,1200.45s24.07-14.12,41.43-13.62c0,0-19.48-2.73-27.66,3.18,12.92-8.89,66.29-25.99,117.53,20.1,0,0-9.49-4.68-16.63-4.44,5.68,3.32,12.72,13.07,12.72,13.07,0,0-10.19,13.56-10.42,13.82s-28.88-2.57-30.99-6.16c-2.12-3.59-1.84-20.95-18.37-22.13-16.53-1.19-38.92,7-47.03,9.76-8.11,2.76-26.58-7.45-20.58-13.58Z" style="fill:#fbfbfb; stroke-width:0px;"/><path d="M1629.81,1434.16c-.11-.09-.13-.1-.08-.07s.08.06.08.07Z" style="fill:#9925e8; stroke-width:0px;"/><path d="M2582.96,1736.79l-19.95-162.43-120.69-91.96-277.97-.84-189.51-.57-.1.1-268.46-.79-.1-.09-199.27-.57h0s-335.65-.96-335.65-.96l-354.03-.97v.1s-143.81-.78-143.81-.78l-.12-.2-.09.2-197.3-1.07-276.24-1.5-16.83,15.22c-24.69,22.34-49.05,44.44-72.38,65.69l-15.94,14.51-30.83,239.76-32.57,253.27,19.93,20.32c20.16,20.55,40.96,41.43,61.81,62.05l18.9,18.7,26.52-1.89c71.08-5.08,143.18-9.73,214.27-13.84l20.42-1.18,15.26-13.62c23.85-21.3,48.08-42.87,74.07-65.95l2.07-1.84c658.44-34.47,1069.36-65.78,1688.36,3.98l101.22,76.46,233.07,16.22,117.08-90.55-41.16-334.98Z" style="fill:#292b31; stroke-width:0px;"/><path d="M1645.53,1457.01c-10.58-1.98-23.74,6.9-24.46,7.39.15-.16,1.36-1.43,11.15-11.56-18-2.42-37.65,36.87-37.65,36.87,5.33-4.31,9.11-2.15,9.11-2.15-11.86,10.2-14.96,23.48-15.6,32.13-.39,5.34.15,8.92.15,8.92-2.62-4.03-4.74-8-6.4-11.91-.7-1.59-1.3-3.17-1.83-4.73-.67-6.33-.99-18.99-1.39-27.59-.52-11.24,20.57-38.03,30.46-44.77,9.38-6.4,20.78-4.94,20.76-5.42,1.26.9,11.95,8.66,15.7,22.83Z" style="fill:#fbfbfb; stroke-width:0px;"/><path d="M801.33,1419.67s20.9,12.37,16.43,60.06c-21.24,18.87-40.67,6.76-42.29,6.83s-19.05,10.15-19,18.28c.05,8.13,10.59,21.46-.46,21.81-11.04.35-28.58-9.74-31.61-15.45-3.03-5.71-19.84-28.19-11.67-44.99,8.17-16.8,22.65-37.8,25.03-39.05s57.19-15.16,63.56-7.49Z" style="fill:#fbfbfb; stroke-width:0px;"/><path d="M814.23,1431.43s-64.95,9.18-74.86,26.88c-9.92,17.7-2.57,57.04,16.65,68.34.9-26.22-3.57-31.55,5.9-34.26,9.47-2.71,30.24-.26,35.16.81,4.93,1.07,23.5-5.31,24.89-10.42s1.1-14.85,1.1-14.85l-3.8-8.28s2.44-14.1-5.04-28.23Z" style="fill:#75b6dc; stroke-width:0px;"/><path d="M930.49,1408.93s-1.54-33.32-7.9-49.07c-15.73-11.85-39.03-9.47-39.03-9.47,0,0-29.68,5.27-27.91,24.71,1.77,19.43,4.78,47.05,15.16,65.22,10.38,18.17,35.15,56.92,41.66,57.05,6.51.13,16.34-2.92,16.08-8.55-.26-5.63-9.74-60.69,1.95-79.88Z" style="fill:#fbfbfb; stroke-width:0px;"/><path d="M1669.57,1468.38s-41.53,43.33-80.49,41.66c0,0,8.55-55.69,30.32-60.43,21.77-4.74,44.07,2.11,50.17,18.77Z" style="fill:#75b6dc; stroke-width:0px;"/><path d="M937.09,1363.96s-93.3,17.32-14.73,141.18c1.68-48.21,10.08-91.53,10.08-91.53,0,0-5.04-29.36,4.64-49.65Z" style="fill:#75b6dc; stroke-width:0px;"/><path d="M1043.28,1475.49c10.34-23.54,20-40.43,34.07-79.2-5.67-19.47-9.9-21.88-19.95-18.81-10.05,3.07-41.66,27.51-42.91,42.75-1.25,15.24-5.58,34.08-3.95,50.7,1.64,16.62,6.62,35.25,7.75,36.29,1.13,1.03,22.67-16.23,24.99-31.73Z" style="fill:#fbfbfb; stroke-width:0px;"/><path d="M1083.64,1391.67s-44.99,11.84-45.84,91.88c14.59-22.14,18.33-32.72,18.33-32.72,0,0,23.96-51.52,27.51-59.16Z" style="fill:#75b6dc; stroke-width:0px;"/><path d="M1378.85,1415.76s-29.43,4.39-27.83,38.96c1.6,34.57-4.62,46.54,3.94,57.84,8.56,11.3,42.39,46.97,42.39,46.97,0,0,14.11-15.37,17.17-22.44,3.06-7.07,11.7-30.85,12.59-39.12.89-8.27,5.06-18.85,1.56-30.38-3.5-11.53-5.06-27.05-14.41-37.01-9.35-9.96-35.4-14.82-35.4-14.82Z" style="fill:#fbfbfb; stroke-width:0px;"/><path d="M1529.54,1356.43c-.93.29-13.37-.68-22.64,9.83-9.27,10.51-19.62,18.79-19.1,30.15.52,11.36,8.13,35.08,11.5,44.68,3.37,9.6,16.95,43.12,16.95,43.12,0,0,32.1-23.27,37.4-35.23s12.66-35.71,13.46-46.48c.8-10.77-6.16-55.98-37.58-46.07Z" style="fill:#fbfbfb; stroke-width:0px;"/><path d="M1414.36,1425.83s-75.72,22.36-16.24,127.16c13.16-24.89,20.94-34.79,22.91-39.22,1.96-4.43,11.32-17.87,10.74-30.42-.58-12.55-17.4-57.52-17.4-57.52Z" style="fill:#3896cd; stroke-width:0px;"/><path d="M1523,1355.54s-11.78,17.24-9.44,35.13l4.1-9.73s-5.54,39.72,4.26,63.98l2.11-20.05s.15,40.76,7.94,49.94c-18.85,14.31-26.7,13.38-34.78-1.86-8.08-15.24-15.31-40.49-11.93-61.03,3.39-20.54,6.68-33.7,12.83-41.36,6.15-7.66,24.89-15.03,24.89-15.03Z" style="fill:#75b6dc; stroke-width:0px;"/><path d="M1501.98,1689.13s-10.79,38.66-5.76,63.15c0,0,.89-13.48,6.15-16.98,0,0-.26,78.94,21.41,106.77,0,0-44.38,6.17-53.77.1-9.39-6.07-17.03-44.75-12.53-59.92,4.5-15.17,31.44-93.82,44.48-93.12Z" style="fill:#9925e8; stroke-width:0px;"/><path d="M2237.78,804.31c-17.55-99.87-120.82-307.79-315.24-506.25-89.9-91.77-239.15-164.15-239.15-164.15,0,0-15.22-47.87-67.67-56.72-22.84-24.96-82.11-12.69-82.11-12.69-183.24,51.14-331.63,102.17-480.68,239.9,0,0-84.85-90.62-283.94-82.29-173.34,40.1-370.72,217.04-377.88,551.22,0,0,91.82-153.78,186.29-192.84,0,0-201.97,237-86.66,480.15,0,0,14.67-189.32,114.41-255.07,0,0-83.36,195.09,28.98,401.96,0,0,28.07-265.39,106.86-334.08,0,0-63.3,131.72,10.95,312.16,0,0,46.21-182.53,88.87-216.6,0,0-4.06,90.39-25.82,116.98,6.91,27.43,16.04,37.42,16.04,37.42,0,0-14.82,40.58-53.02,58.61-20.86,41.29-40.62,92.29-40.62,92.29,0,0,48.13,70.3,51.09,77.97,0,0,36.8-5.93,53.16,10.23,0,0-8.4,15.35-7.07,34.8-15.21-10.14-33.42-5.39-37.71,9.76,0,0-19.83-6.78-39.6,1.61s-75.16,41.53-45.86,105.54c13.52,25.07,59.5,27.82,59.5,27.82l-5.44-40.4s48.74,5.6,69.84,66.58c10.68,30.87,28.08,59.27,50.85,82.7,11.35,11.67,20.63,23.19,20.94,29.89.81,17.53-3.88,56.77-3.88,56.77,0,0-25.31-22.25-40.65-63.17,0,0-35.63,73.63-34.33,101.76,2.13,46.09,87.7,96.12,89.87,114.89,0,0,62.69-22.84,83.71-46.58,19.65-22.19,34.43-71.41,12.58-136.1l62.37,33.55s10.96,28.33-46.06,80.19c80.6,8.2,155-66.35,155-66.35,0,0-11.64,53.01-81.71,103.95,66.89,21.19,223.65-72.78,223.65-72.78,0,0-10.44,41.46-59.46,64.54,60.06,18.69,109.05-5.04,109.05-5.04,0,0-94.34,182.59-561.27,170.99,196.21,121.68,261.54,170.05,261.54,170.05,0,0,165.11-2.42,272.2-106.24,0,0-109.05,183.27-424.37,341.81,257.12,43.47,405.22-33.46,405.22-33.46,0,0-4.76,75.24-226.73,294.35,306.45-79.91,370.59-130.3,451.2-286.23,0,0,190.57-16.89,234.08-13.7,126.45-81.01,282.27-423.28,282.27-423.28,0,0,6.3-173.32-31.21-224.92-37.51-51.61-143.73-210.62-143.73-210.62l32.77-135.51s29.22,55.24,32.42,110.38c36.69-64.79,63.66-170.76,63.66-170.76l19.7,60.24c27.72-19.49,54.16-137.15,67.02-182.63,10.35,26.84,12.83,108.69,12.83,108.69,0,0,89.06-90.41,65.03-206.82,24.45,43.14,32.47,75.05,46.37,140.1,66.65-96.75,16.88-357.52,1.58-444.57ZM806.24,962.81s-21.26-16.58-19.99-38.43c0,0-10.26,31.37,5.99,59.24,0,0-39.28,64.91-34.11,120.61,0,0-79.84-151.13,86.88-372.18,0,0-93.01,56.3-157.68,161.45-7.57-7.81-19.81-22.52-19.52-35.74,0,0-1.6,46.77,3.26,64.49-.39.75-.77,1.5-1.16,2.25-6.02-3.18-22.06-13.21-27.83-32.16,0,0-2.44,34.22,14.97,59.81-18.12,43-30.1,91.92-30.59,146.46,0,0-58.72-88.35,5.98-292.99,30.32-95.89,137.4-208,137.4-208,0,0-90.94,30.87-143.51,89.89-20.42,22.93-42.23,54.08-61.27,83.59-5.01-8.29-9.95-20.42-10.04-36.07,0,0-9.92,29.57-4.52,59.14-22.56,36.53-52.43,81.07-52.43,81.07,0,0,13.62-148.61,82.78-256.75,62.35-97.49,81.06-118.01,130.32-178.18,0,0-77.7,21.8-141.2,79.55-.46-24.78,7.14-52.54,7.14-52.54-19.03,23.07-27.67,55.08-31.42,74.97-37.54,36-79.05,82.07-119.82,139.67,0,0,20.83-104.61,80.03-193.14,62.95-94.13,121.93-153.27,168.52-188.55,42.67-32.31,95.32-48.16,148.74-44.85,78.71,4.88,172.5,28.59,196.07,71.35,0,0-105.1,128.01-120.89,264.91,0,0-23.84-112.52,29.68-164.86,0,0-45.67-21.74-29.56-104.88,0,0-47.09-5.63-120.15,18.13,0,0,62.55,13.91,74.93,28.63,0,0-88.05,53.5-105.87,108.97,0,0,58.85-30.91,84.87-12.16,0,0-59.85,46.78-61.47,96.29,39.41-48,85.83-42.99,85.83-42.99,0,0-51.16,42.48-72.81,127.61,35.37-51.07,70.81-44.25,70.81-44.25,0,0-15.51,58.61-7.59,75.16,28.26,34.47,103.58,101.89,104.13,170.17-3.32,54.79-29.57,106.09-74.31,137.43,0,0,39.65-132.14,39.85-174.65,0,0-51.09,15.8-110.47,152.55ZM1088.48,717.33c62.77-143.19,134.29-143.89,134.29-143.89,0,0-21.93,144.77,5.59,224.16,68.55-83.83,100.97-179.86,177.78-206.83,0,0,44.65,46.51,50.89,87.85-34.37-30.5-96.28-18.97-96.28-18.97,0,0,82.45,38.69,92.9,77.23l-.03,18.21s-55.41-37.88-85.83-27.37c0,0,67.23,47.31,73.15,83.78,0,0-96.33-36.53-162.32-14.62,0,0,40.87,4.62,53.85,18,0,0-111.55,37.68-147.84,68.84,21.25-46.95,3.6-100.34,3.6-100.34,0,0-78.47,75.61-90.58,76.17-12.12.56-60.83-11.93-60.83-11.93,0,0-153.73-164.19-155.35-199.24,204.75-186.39,268.69-191.51,268.69-191.51,0,0-68.79,181.84-61.69,260.44ZM803.58,1327.63s-32.99-28.83-34.37-58.69c-1.38-29.86,47.08-69.82,91.15-129.54,0,0,18.61.39,21.5,10.17,16.52-22.55,68.05-24.28,110.89-7.4,0,0-19.77,43.84-52.05,56.07-32.28,12.22-132.09,50.66-96.47,127.07l-40.66,2.31ZM1173.72,1257.63s16.94,28.71,6.02,55.23c14.49-5.44,29.07-27.8,29.07-27.8,0,0-3.77,59.15-65.95,83.71,49.07,10.74,104.27,4.29,104.27,4.29,0,0,34.75,48.26,22.8,108.66-26.58-2.68-67.52,87.25-100.18,103.07-32.66,15.82-87.5,39.6-139.62,19.03,57.84-62.08,37.77-74.17,69.35-94.7,4.92-24.95-5.1-35.32-5.1-35.32,0,0,15.94-11.58,9.01-30.34,0,0,10.72-77.69-45.1-75.11-35.48,1.64-58.92,38.72-58.29,71.21,0,0-11.9-60.38-31.29-71.84-19.39-11.46-49.29-22.66-56.14-27.76,0,0,59.04,10.72,78.74-4.07,0,0,57.62-38.66,59.37-66.49,0,0,11.42,40.67,12.84,71.39,29.08-36.9,37.61-105.81,37.61-105.81,0,0,29.24,88.42,15.34,125.48,33.7-21.51,57.26-102.82,57.26-102.82ZM925.95,1294.23s-15.08,39.73-27.09,40.28c-12.01.55-43.95-3.36-41.98-35.79,2.77-45.66,66.24-58.68,66.24-58.68-30.75,31.34-38.24,52.18-38.24,52.18l41.07,2.01ZM931.95,1266.85s34.94-36.96,45.8-55.24c0,0,5.41,27.94-6.3,37.37-11.71,9.43-39.5,17.87-39.5,17.87ZM962.32,1314.01c28.49-59.21,44.88-70.37,29.49-136.01,0,0,6.83-16.36,16.79-16.82,5.41-.25,10.98,12.29,10.98,12.29,0,0,27.08,107.38-57.25,140.55ZM1482.89,2459.11c-7.84-15.59-21.04-37.95-34.51-43.52,0,0,11.96,38.37,13.45,65.55-93.66,88.76-246.43,129.3-246.43,129.3,100.86-69.71,200.15-257.73,200.15-257.73,37.73,28.18,106.07,43.24,106.07,43.24-8.83,23.02-22.29,44.05-38.73,63.17ZM1544.18,2377.33c-37.61-25.58-43-15.58-139.34-59.26,60.74,19.31,159.24,11.29,159.24,11.29,0,0-11.92-4.65-29.37-25.53,179-49.03,192.36-341.93,192.36-341.93,0,0-47.05,107.98-75.75,181.3-28.7,73.31-69.09,100.33-210.37,168,61.45-134.24,95.13-315.76,95.13-315.76,0,0-62.34,179.44-161.44,296.42-4.58-14.25-13.62-34.06-31.35-52.91,0,0,6.32,53.37-1.89,88.2-15.59,14.72-31.91,27.55-48.88,37.73-59.85,35.93-253.49,32.53-253.49,32.53,334.41-167.66,410.91-454.8,410.91-454.8-116.01,164.08-320.59,213.21-354.35,214.77-.35.02-.74,0-1.12,0,8.6-19.88,16.19-58.58,16.19-58.58-5.84,11.69-33.65,37.12-45.91,48.01-56.97-28.76-159.29-106.18-159.29-106.18,0,0,142.04,5.15,250.79-6.38,108.75-11.53,258.17-156.33,258.17-156.33-.46,18.23-27.68,76.73-27.68,76.73,0,0,58.04-57.76,123.75-99.82-33.18,67.99-29.6,138.4-29.6,138.4,39.42-75.98,102.93-137.45,102.93-137.45,0,0,4.07,31.69-31.1,72.99,46.24-31.62,79.8-60.93,79.8-60.93,0,0,19.37,25.12-7.74,142.16,68.4-68.21,115.95-249.94,115.95-249.94,0,0,61.54,64.81,42.05,206.21,53.4-139.5,44.81-212.83,44.81-212.83,108.22,145.91,71.61,198.34,36.74,288.42-34.87,90.08-108.97,147.49-108.97,147.49l33.58,8.86c-21.2,19.84-47.93,18.48-47.93,18.48-37.46,90.2-165.45,117.14-165.45,117.14-3.65,10.14,24.85,35.71,24.85,35.71l-56.23,7.8ZM1396.62,1548.72c-80.58-73.47-14.49-125.96-14.49-125.96,0,0,32.75,4.99,40.72,36.71,7.97,31.72-12.22,54.66-12.22,54.66,0,0-1.94-6.74-.72-22.73-17.42,17.07-13.29,57.31-13.29,57.31ZM1420.11,1550.24c25.06-2.02,25.76-24.39,25.76-24.39l-20.61-.35s32.09-32.92-2.77-83.35c32.25,12.82,70.16,129.46,70.16,129.46,0,0,22.62-26.63,15.34-52.75,16.5.54,19.61-7.41,19.61-7.41,0,0-17.79-9.59-18.27-19.97,17.14,4.85,35.68-6.85,35.94-19.87,12.42,34.12-11.17,77.27-3.36,105.53,21.56-30.92,50.64-39.63,50.64-39.63,0,0,29.58-42.56,52.71-60.54,0,0-38.87,3.53-55.05,38.1,0,0-21.49-70.99,38.95-76.82,41.15-1.03,39.99,20.7,40.72,36.71.74,16.01-165.58,165.93-144.11,236.49,0,0-13.58-33.52-24.29-33.03s-28.05,26.34-28.05,26.34c0,0-12.32-69.47,18.73-96.7-19.35-5.83-34.31,8.31-34.31,8.31,0,0-41.93-25.17-37.75-66.12ZM1496.54,1388.21c16.78-45.01,59.44-22.91,60.49-.19,2.61,56.47-38.38,84.38-38.38,84.38-16.58-35.01-22.1-84.19-22.1-84.19ZM1692.92,1823.41c9.23-81.74-44.97-128.67-44.97-128.67,19.08,89.21,3.25,126.69-38.71,161.81,35.13-56.26-50.04-196.08-50.04-196.08,22.44-2.34,3.78-21.42,3.78-21.42,0,0,23.19-53.52,53.43-73.15,40.63-26.38,67.59-76.41,67.59-76.41,32.38,53.14,26.37,106.11,26.37,106.11-10.79-22.27-43.9-35.05-43.9-35.05,62.5,85.58,79.05,162.22,26.45,262.87ZM2030.2,1821.27c23.82,121.83.6,151.28-18.98,189.95-22.25,43.96-19.44,61.58-173.56,279.48-30.12,42.59-69.57,89.94-214.17,57.6,0,0,81.13-18.06,131.81-103.66,0,0,91.15-26.33,111.78-58.5,0,0-39.82,10.95-64.27-11.34,49.01-37.39,198.2-187.39,188.08-378.16l-17.1,24.21s-98.45-187.99-178.68-319.59c0,0,206.97,176.26,235.08,320.02ZM1957.82,1399.64s-18.92-88.13-32.6-109.62c-13.68-21.48-71.14-61.44-80.48-87.67.11,23.41,33.31,122.7,53.82,144.2,4.46,40.12-19.08,115.04-19.08,115.04,0,0-35.53-114.36-67.2-142.82l-4.79,37.08s-141.06-204.46-166.97-216.27l50.5,107.6s42.86,129.85-22.18,167.55c0,0-7.52-14.94-27.34-21.5,6.26,8.82,12.33,34.56,12.33,34.56,0,0-15.1-17.19-34.58-16.29-19.47.9-49.67,58.24-49.67,58.24,0,0,31.74-127.33-42.69-123.9-54.09,2.5-66.9,72.48-46.18,136.13,0,0-16.54-1.4-31.17-45.83,0,0-57.45-23.36-71.85-43.95-40.95,33.55-55.53,55.9-27.75,140.92,27.66,35.58,54.8,50.37,54.8,50.37l39.82,64.08s-.56,72.45,8.79,96.3c0,0,5.68,76.06-129.27,83.6,46.99-34.26,68.71-80.36,60.06-126.8-22.99,56.14-122.92,108.45-196.91,111.87,0,0,31.5-40.92,22.8-97.76,0,0-36.61,52.43-121.88,74.58,11.21-29.57,14.77-55.76,14.77-55.76l44.12-2.47-48.71-7.72s.34-.25.92-.75c-16.79-4.95-57.13-18.74-76.72-41.94-30.37,4.33-48.51,12.97-49.56,25.38l12.36.08s30.79,129-48.4,132.66l-1.7-18.13s-5.79,15.45-17.91,16.01c-12.12.56-101.07-28.72-53.06-125.48l6.47,27.4s54.09,25.74,56.53,50.35c3.5,19.35,6.6,20.94,6.6,20.94l13.13-34.87-19.3-32.93s12.56-47.2-1.8-76.46c-32.16-34.29-55.46-59.88-55.46-59.88,0,0-25.31-55.1-17.22-70.11,0,0,5.23-6.42,12.15-4.46,0,0-13.38-22.15-33.81-20.88,0,0,2.81-37.64-12.4-50.27-7.38,16.28-15.44,17.73-30.05,18.41s-47.57-8.86-46.62,11.59c.94,20.45,7.55,29.57,7.55,29.57,0,0-26.31-6.37-28.18-46.83-1.48-32.02,56.02-54.63,93.54-40.31,0,0-2.58-8.99,20.78-10.07,17.31-.8,37.77,57.23,37.77,57.23,0,0,32.15,10.66,33.05,30.13.9,19.47-26.66,63.68,11.78,93.12-.47-59.5,13.15-88.42,41.1-102.94-19.91-8.62-33.63-14.49-28.2-37.73,0,0,25.62-8.56-1.5-60.64-15.42,22.83-21.04,84-12.63,106.6-42-36.22-56.94-91.68-49.89-117.59,7.04-25.91,26.79-30.29,26.79-30.29,0,0,26.68,11.89,40.9,9.93,14.22-1.96,81.77,115.59,19.3,227.75,42.79-36.02,48.64-59.49,48.64-59.49,0,0,43.24-12.19,53.13-88.97-15.45,12.86-32.21,48.97-32.21,48.97,0,0-18.68-80.45,28.13-109.28,24.68-14.8,35.99,28.04,28.11,63.97,0,0-11.64,25.04-6.46,48-3.84,10.8-48.18,74.21-69.03,82.76,1.23,12.52,2.15,32.42,11.92,42.16-6.8,12.46,2.39,28.29,2.39,28.29,0,0,11.02-10.27,10.39-19.13,0,0,140.71,27.97,232.51-106.36l23.23,61.59s27.46,12.39,41.24,29.1c0,0-20.81-46.74-20.59-79.71.21-32.97-5.86-108.14-5.86-108.14,0,0-32.59-57.69,5.11-157-45.15,64.53-83.98,68.93-83.98,68.93,0,0,83.04-103.36-68.07-164.03,0,0,6.63,30.92-11.4,44.33-2.56-27.2-55.61-44.48-96.75-19.81,10.1-41.77,14.5-66.37-.46-108.61,0,0-6.88,20.05-30.25,21.13-13.85.64-48.14-.16-48.14-.16,0,0,47.13-21.69,71.55-49.27,22.17-25.04,19.07-73.08,44.08-80.74,0,0-24.83-.15-53.91,25.26-29.07,25.41-66.25,42.09-77.33,55.61-11.08,13.52-19.43,44.15-31.43,44.71-12.01.55-41.93.64-40.35-35.54-15.8,16.99-4.68,39.57-4.68,39.57,0,0-19.11-7.68-20.37-34.94-1.26-27.26,15.44-78.77,101.43-123.07,86.16-44.39,152.71-45.65,213.65-129.78,0,0-.1,68.3-58.4,101.57,0,0,112.57-22.76,220.64-67.65-27.07,52.42-101.15,100.94-101.15,100.94,0,0,115.04,2.71,173.58-34.91,51.46-33.07,94.14-102.35,94.14-102.35-8.67,73.34-12.83,162.17,38.05,279.25,0,0,36.11-63.25,54.83-71.05,16.63,40.86,33.84,56.55,33.84,56.55,0,0,13.67-79.56-1.55-127.42,70.65,13.22,90.98,92.07,90.98,92.07,0,0,31.63-103.8-33.29-176.26,110.14-18.97,118.89,57.82,118.89,57.82,0,0,28.71-101.28-56.72-195.13,95.65,24.2,105.51,49.77,109.25,112.04,11.44,190.27-40.66,152.36-4.57,314.18,0,0,29.91-37.81,36.56-67.6l57.1,53.3s35.96,60.35,38.86,123.1c.63,13.63-22.08,122.88-22.08,122.88ZM967.88,1082.4c22.1-14.46,50.26-45.47,74.36-58.94-9.95,5.23-10.55,13.28-21.69,30.27-11.14,16.99-52.67,28.67-52.67,28.67ZM2043.81,1322.59s-39.83-158.18-63.07-182.47c-23.24-24.3-87.14-55.82-87.14-55.82,0,0,72.08-115.21,77.71-134.34,0,0,82.51,87.04,100.56,205.46,13.91,91.25-28.05,167.17-28.05,167.17ZM2115.52,1100.72c-17.68-40.08-27.63-64.8-33.14-79.43-4.95-13.14-12.75-24.76-22.98-34.38l-73.3-68.86s33.6-33.1,35.69-58.24c2.1-25.25-11.52-94.44-11.52-94.44,0,0,147.49,191.72,105.26,335.34ZM2229.47,1115.75s-41.73-58.56-89.07-153.94c-2.85-146.22-203.4-474.54-203.4-474.54,17.73,45.99,29.45,130.23,36.9,206.58-19.55-20.55-55.86-42.59-55.86-42.59,6.45,31.99,41.53,77.77,60.95,101.2,4.54,59.14,6.26,103.34,6.26,103.34l-126.95,208.8c67.33-274.35-83.61-669.35-83.61-669.35,0,0-81.19,438.9-221.5,654.17-38.43-143.69-33.85-290.46-14.93-413.97,26.23-39.98,77.36-90.78,77.36-90.78-31.99,10.42-54.1,24.46-67.64,35.14,29.49-150.36,75.72-254.5,75.72-254.5,0,0-42.67,22.44-103.71,72.87-8.64-13.99-18.22-32.44-24.63-53.49,0,0-6.56,39.78-1.8,76.14-12.58,11.17-25.71,23.39-39.22,36.71-11.3-20.4-23.11-46.04-25.39-67.29,0,0-8.26,42.94,1.71,91.4-60.07,63.12-125.39,147.12-182.14,255.18-14.95-182.74,124.27-407.74,246.29-497.94-132.98,60.79-237.86,115.62-319.07,162.14-3.29-21.49-11.07-42.81-11.07-42.81-17.93,15.25-36.03,53.84-45.45,76.09-131.82,79.89-182.77,127.86-182.77,127.86,1.49-5.27,39.49-121.51,101.62-203.31,62.14-81.8,468.88-251.28,507.03-256.29,38.15-5.01,81.32.15,101.89,51.23,357.15,183.85,460.1,469.21,520.02,583.52,59.92,114.32,62.44,378.42,62.44,378.42Z" style="fill:#1f2128; stroke-width:0px;"/><path d="M944.22,1606.33c2.39,23.47,4.81,46.92,7.26,70.37-.31,7.63-.61,15.26-.92,22.89,6.18-.11,12.38-.21,18.59-.32-2.7-7.75-5.42-15.49-8.1-23.24-5.67-23.21-11.27-46.45-16.83-69.7Z" style="fill:none; stroke-width:0px;"/><path d="M1035.06,1698.22c-2.82.04-5.65.09-8.47.13,4.73,18.51,9.48,37.01,14.28,55.5-1.96-18.54-3.89-37.09-5.82-55.63Z" style="fill:none; stroke-width:0px;"/><path d="M1355.1,1595.91c16.01,5.68,32.04,11.36,48.12,17.05.25,20.84.5,41.66.75,62.49,15.84-.02,31.68-.04,47.53-.05-.47-26.57-.94-53.14-1.4-79.71-31.67.06-63.33.14-95,.22Z" style="fill:none; stroke-width:0px;"/><path d="M164.65,1653.5c29.38,8.99,58.86,17.88,88.44,26.68-1.39,12.37-2.77,24.74-4.15,37.11,27.32-.9,57.67-1.87,90.71-2.89,2.21-21.3,4.42-42.59,6.62-63.88-60.54.92-121.08,1.91-181.61,2.98Z" style="fill:none; stroke-width:0px;"/><path d="M767.25,1601.69c-3.97-.11-7.94-.21-11.9-.31-6.32,34.13-12.71,68.29-19.13,102.48,13.82-.31,27.77-.61,41.84-.92-3.66-33.71-7.27-67.46-10.81-101.25Z" style="fill:none; stroke-width:0px;"/><path d="M779.85,1719.46c-.6-5.5-1.19-11.02-1.79-16.52-14.07.3-28.02.61-41.84.92-1.02,5.44-2.04,10.87-3.06,16.31,15.57-.24,31.13-.48,46.69-.71Z" style="fill:none; stroke-width:0px;"/><path d="M1556.59,1597.27c15.12,5.85,30.27,11.71,45.45,17.58.48,13.63.96,27.26,1.43,40.88,17.46.03,34.93.05,52.38.09-.8-19.55-1.61-39.09-2.4-58.64-32.29.02-64.58.04-96.86.08Z" style="fill:none; stroke-width:0px;"/><path d="M88.42,2003.45c-2.35,19.17-4.71,38.35-7.07,57.52,20.52,20.69,41.18,41.2,62.02,61.57,72.21-5.57,144.45-10.65,216.72-15.23,9.04-8.17,18.06-16.3,27.06-24.41,15.85-14.29,31.64-28.49,47.37-42.6,5.1-55.7,10.21-111.4,15.31-167.1-42.37,1.3-84.73,2.7-127.07,4.19-4.5,43.38-8.99,86.76-13.48,130.15-31.15,1.74-62.3,3.56-93.44,5.46,11.03-98.56,22.06-197.14,33.1-295.7-55.52,1.82-98.49,3.35-125.89,4.35-11.54,93.94-23.08,187.87-34.62,281.81Z" style="fill:#fbfbfb; stroke-width:0px;"/><path d="M147.13,2112.22c-18.49-18.1-37.04-36.51-55.25-54.85l40.06-326.05c24.65-.89,60.63-2.16,105.78-3.65-10.61,94.73-33.13,296.03-33.13,296.03l11.87-.72c30.98-1.89,62.4-3.72,93.39-5.46l8.51-.48.88-8.48c4.09-39.5,8.18-78.99,12.28-118.49l.31-3c35.01-1.23,70.92-2.41,107.03-3.54l-13.92,151.94c-14.51,13.03-29.45,26.47-44.46,39.99-8.14,7.34-16.3,14.69-24.48,22.08-69.19,4.4-139.41,9.33-208.85,14.67Z" style="fill:#75b6dc; stroke-width:0px;"/><path d="M335.06,1758.65c41.88-1.44,83.76-2.8,125.64-4.09,1.34-14.61,2.68-29.23,4.02-43.84-44.91,1.26-86.78,2.51-125.07,3.69-1.53,14.75-3.05,29.5-4.59,44.24Z" style="fill:#fbfbfb; stroke-width:0px;"/><path d="M348.69,1724.13c34.93-1.07,70.17-2.11,105.04-3.1l-2.18,23.81c-35.74,1.11-71.09,2.26-105.36,3.42l2.5-24.13Z" style="fill:#75b6dc; stroke-width:0px;"/><path d="M409.97,1546.57l-201.19.57c-24.01,21.97-48.16,44.13-72.47,66.51-4.42,36-8.84,71.99-13.27,107.99,27.4-1,70.38-2.52,125.89-4.35,1.39-12.37,2.77-24.74,4.15-37.11-29.58-8.8-59.06-17.69-88.44-26.68,60.53-1.07,121.07-2.06,181.61-2.98-2.21,21.29-4.41,42.59-6.62,63.88,38.29-1.18,80.16-2.42,125.07-3.69,3.08-33.59,6.16-67.18,9.24-100.77-21.5-20.96-42.82-42.09-63.98-63.38Z" style="fill:#fbfbfb; stroke-width:0px;"/><path d="M480.29,1836c48.78-1.57,97.58-3.01,146.38-4.32,1.46-19.68,2.92-39.35,4.38-59.03-27.25.6-54.48,1.24-81.73,1.9,1.83-22.09,3.65-44.19,5.48-66.28-21.64.57-42.76,1.14-63.29,1.7-3.74,42.01-7.48,84.02-11.21,126.02Z" style="fill:#fbfbfb; stroke-width:0px;"/><path d="M500.68,1719.72c14.15-.39,28.56-.78,43.23-1.17l-5.48,66.26,11.13-.27c23.58-.58,47.31-1.13,70.7-1.66l-2.89,39.03c-41.09,1.12-83.41,2.37-126.12,3.72l9.43-105.92Z" style="fill:#75b6dc; stroke-width:0px;"/><path d="M565.95,1573.32c.75-9.06,1.49-18.13,2.25-27.2l-88.08.25c-.39,4.17-.76,8.35-1.15,12.52,2.21,1.66,4.42,3.32,6.63,4.96,3.79,2.85,7.59,5.7,11.39,8.53,2.12,1.58,4.22,3.16,6.34,4.73-3.94,44.28-7.88,88.57-11.82,132.85,20.53-.57,41.65-1.14,63.29-1.7,3.68-44.53,7.36-89.06,11.04-133.58.04-.46.07-.91.11-1.37Z" style="fill:#fbfbfb; stroke-width:0px;"/><path d="M779.85,1719.46c-15.56.23-31.12.47-46.69.71,1.02-5.44,2.04-10.87,3.06-16.31-20.24.45-40.19.91-59.83,1.38-11.57,42.34-23.27,84.76-35.08,127.29,23.91-.63,47.83-1.24,71.74-1.82,4.83-19.1,9.63-38.18,14.42-57.25,17.33-.34,34.66-.67,51.99-.98,2.46,18.86,4.94,37.71,7.44,56.54,24.69-.53,49.37-1.04,74.06-1.5-7.12-41.89-14.1-83.84-20.97-125.86-20.88.42-41.53.85-61.92,1.28.6,5.51,1.18,11.02,1.79,16.52Z" style="fill:#fbfbfb; stroke-width:0px;"/><path d="M654.56,1822.17c9.89-35.66,19.8-71.6,29.51-107.11,13.22-.31,26.57-.62,40.05-.92l-3.05,16.22,16.63-.25c14.1-.22,28.2-.43,42.3-.64l10.99-.16s-1.6-14.7-1.81-16.59c14-.3,28.12-.59,42.34-.88,6.06,37.02,11.86,71.86,17.63,105.91-17.75.34-35.67.71-53.52,1.09-2-15.1-4.06-30.77-6.26-47.65l-1.16-8.86-8.94.16c-17.34.31-34.67.64-52.01.98l-7.64.15-1.86,7.41c-4.17,16.61-8.35,33.23-12.55,49.87-16.34.4-33.07.82-50.65,1.28Z" style="fill:#75b6dc; stroke-width:0px;"/><path d="M685.55,1547.43c-.28,3.96-.56,7.92-.84,11.89,8.7,6.23,17.43,12.46,26.16,18.67-11.37,42.33-22.87,84.74-34.49,127.25,19.64-.46,39.6-.92,59.83-1.38,6.42-34.19,12.81-68.35,19.13-102.48,3.96.11,7.93.21,11.9.31,3.54,33.8,7.15,67.54,10.81,101.25,20.4-.44,41.05-.87,61.92-1.28-8.4-51.43-16.63-102.96-24.64-154.61-43.27.12-86.53.25-129.79.38Z" style="fill:#fbfbfb; stroke-width:0px;"/><path d="M1014.33,1546.36c-.12,3.75-.25,7.51-.37,11.26,8,5.54,16.02,11.06,24.05,16.59-1.21,39.23-2.41,78.46-3.61,117.69.22,2.11.44,4.21.66,6.32,21.92-.33,43.97-.65,66.14-.94,1.16-50.39,2.32-100.78,3.48-151.17l-90.35.26Z" style="fill:#fbfbfb; stroke-width:0px;"/><path d="M1025.41,1693.72c-17.64-48.97-34.96-98.04-51.95-147.23-36.32.1-72.63.21-108.95.32-.19,3.78-.38,7.56-.57,11.34,8.49,6.03,17,12.06,25.53,18.06-1.98,41.54-3.95,83.07-5.93,124.6,22.13-.42,44.47-.83,67.01-1.22.31-7.63.61-15.26.92-22.89-2.45-23.45-4.87-46.91-7.26-70.37,5.56,23.25,11.16,46.49,16.83,69.7,2.69,7.75,5.4,15.5,8.1,23.24,19.03-.32,38.18-.63,57.44-.93-.39-1.54-.79-3.08-1.18-4.63Z" style="fill:#fbfbfb; stroke-width:0px;"/><path d="M1040.87,1753.85c-4.8-18.49-9.55-36.99-14.28-55.5-19.27.3-38.42.6-57.44.93,14.67,42.02,29.57,83.97,44.71,125.85,28.14-.38,56.28-.73,84.42-1.03.97-42.27,1.95-84.54,2.92-126.81-22.17.3-44.22.61-66.14.94,1.92,18.55,3.86,37.09,5.82,55.63Z" style="fill:#fbfbfb; stroke-width:0px;"/><path d="M1020.84,1815.03c-12.54-34.75-25.19-70.31-37.69-105.98,11.85-.2,23.75-.39,35.7-.57,4.44,17.35,8.49,33.08,12.34,47.89l19.62-3.56c-1.57-14.91-3.13-29.83-4.69-44.75,14.88-.22,29.83-.43,44.83-.64l-2.46,106.78c-23.03.26-45.72.54-67.66.83Z" style="fill:#75b6dc; stroke-width:0px;"/><path d="M877.52,1827.31c22.65-.42,45.3-.81,67.96-1.17,1.69-42.18,3.38-84.36,5.08-126.54-22.54.39-44.89.8-67.01,1.22-2.01,42.17-4.01,84.33-6.02,126.5Z" style="fill:#fbfbfb; stroke-width:0px;"/><path d="M893.09,1710.63c15.58-.29,31.27-.58,47.05-.85-1.43,35.51-2.85,71.01-4.27,106.51-15.46.25-31.26.52-47.85.82l5.07-106.48Z" style="fill:#75b6dc; stroke-width:0px;"/><path d="M1267.34,1655.38c-26.02-.1-52.04-.18-78.04-.25.18-13.96.36-27.92.54-41.89-16.55-5.08-33.08-10.17-49.57-15.25,34.27-.14,68.55-.27,102.82-.38-.05,7.84-.11,15.68-.16,23.53,21.52-.08,43.03-.16,64.55-.22,0-14.59-.02-29.18-.03-43.77-13.82-10.5-27.59-21-41.32-31.51l-103.63.29c-11.96,10.34-23.95,20.68-36,31.03-.7,34.22-1.39,68.45-2.09,102.66,7.31,5.69,14.64,11.38,21.98,17.07,53.32-.64,107.17-1.17,161.14-1.55,0-3.47,0-6.94,0-10.41-13.44-9.79-26.84-19.58-40.19-29.36Z" style="fill:#fbfbfb; stroke-width:0px;"/><path d="M1146.4,1696.7c5.11,3.96,10.21,7.92,15.34,11.87,26.87-.17,53.73-.32,80.61-.44-.14,20.13-.27,40.26-.4,60.38-18.04.09-36.08.2-54.12.32.12-8.75.23-17.5.34-26.25-21.67.14-43.35.29-65.04.46-.33,16.3-.67,32.6-.99,48.91,14.22,10.5,28.5,21,42.83,31.5,33.62-.28,67.26-.5,100.89-.67,13.97-10.23,27.89-20.43,41.76-30.64-.02-32.33-.05-64.66-.08-96.99-53.97.38-107.81.91-161.14,1.55Z" style="fill:#fbfbfb; stroke-width:0px;"/><path d="M1168.2,1813.43c-12.33-9.04-24.4-17.91-35.96-26.45.23-11.34.46-22.67.69-34.01,15.04-.11,30.08-.22,45.11-.32-.07,5.35-.14,10.7-.21,16.05l-.14,10.2,10.2-.07c18.04-.12,36.07-.23,54.11-.32l9.89-.05.06-9.88c.13-20.12.27-40.25.4-60.37l.02-2.61c15.2-.13,30.28-.26,45.18-.37l.06,81.87c-11.65,8.56-23.33,17.13-35.05,25.71-32.11.17-63.82.38-94.36.63Z" style="fill:#75b6dc; stroke-width:0px;"/><path d="M1481.57,1546.04c-.36-.34-.72-.67-1.08-1l-166.99.47c0,3.86,0,7.71.02,11.57,8.67,5.82,17.36,11.65,26.07,17.47.18,40.13.37,80.26.55,120.39,59.04-.35,118.14-.52,176.79-.48-.99-39.53-1.98-79.06-2.97-118.59-10.84-9.95-21.64-19.9-32.39-29.83ZM1403.97,1675.46c-.25-20.83-.5-41.66-.75-62.49-16.07-5.69-32.11-11.37-48.12-17.05,31.67-.08,63.33-.15,95-.22.46,26.57.93,53.14,1.4,79.71-15.85.01-31.69.03-47.53.05Z" style="fill:#fbfbfb; stroke-width:0px;"/><path d="M1340.73,1822.52c21.66-.05,43.34-.08,65.01-.08-.39-32.01-.77-64.04-1.16-96.06,26.17-.02,52.33-.02,78.49,0,11.34-10.35,22.63-20.71,33.88-31.07,0-.28-.01-.56-.02-.84-58.65-.05-117.75.13-176.79.48.2,42.53.39,85.05.59,127.58Z" style="fill:#fbfbfb; stroke-width:0px;"/><path d="M1350.19,1704.88c48.4-.27,96.1-.41,142.03-.43-4.38,4.01-8.72,7.99-13.02,11.92-11.64,0-23.27-.01-34.91-.01-13.24,0-26.48,0-39.71.02h-10.11s1.16,96.06,1.16,96.06c-14.95,0-29.99.03-44.94.06l-.5-107.61Z" style="fill:#75b6dc; stroke-width:0px;"/><path d="M1544.76,1822.77c21.53.11,43.05.23,64.58.38-1.34-38.3-2.68-76.6-4.02-114.9,11.11.04,22.21.07,33.33.12,15.24,38.4,30.66,76.87,46.26,115.42,26.67.26,53.32.55,79.99.89-.21-4.04-.42-8.06-.63-12.1-7.99-3.86-15.99-7.72-23.96-11.57-15.86-34.05-31.55-68.02-47.09-101.92,1.23-1.24,2.45-2.49,3.68-3.73-51.24-.48-103.26-.75-155.7-.85,1.19,42.76,2.38,85.52,3.57,128.27Z" style="fill:#fbfbfb; stroke-width:0px;"/><path d="M1745.11,1814.43c-16.58-.2-34.25-.39-53.44-.58-14.77-36.54-29.43-73.14-43.62-108.9,12.46.08,24.79.18,36.98.29,15.04,32.82,30.58,66.45,46.2,99.98l1.5,3.23,12.38,5.98ZM1598.98,1813.08c-14.83-.1-29.66-.19-44.5-.26l-3.01-108.3c14.67.03,29.25.08,43.71.14l3.8,108.42Z" style="fill:#75b6dc; stroke-width:0px;"/><path d="M1715.01,1577.31c-11.48-10.96-22.9-21.9-34.29-32.82-56.55.15-113.1.31-169.64.47.1,3.86.19,7.73.29,11.59,8.81,5.97,17.64,11.94,26.49,17.92,1.11,40.01,2.23,80.01,3.34,120.02,52.44.1,104.46.37,155.7.85,7.58-7.66,15.15-15.33,22.7-23.01-1.53-31.68-3.05-63.36-4.58-95.03ZM1603.47,1655.73c-.48-13.62-.96-27.25-1.43-40.88-15.18-5.87-30.33-11.73-45.45-17.58,32.28-.04,64.57-.06,96.86-.08.8,19.54,1.61,39.09,2.4,58.64-17.46-.03-34.93-.06-52.38-.09Z" style="fill:#fbfbfb; stroke-width:0px;"/><path d="M1780.02,1824.37c63.6.95,127.2,2.12,190.8,3.5-.31-4.09-.61-8.17-.91-12.26-11.2-15.69-22.34-31.32-33.44-46.93-30.96-.44-61.92-.84-92.88-1.2-1.3-21.24-2.6-42.48-3.91-63.72,27.54.21,55.09.44,82.63.7-.13-1.82-.26-3.65-.38-5.47-48.44-1.17-98.24-2.09-149.02-2.78,2.37,42.72,4.74,85.44,7.11,128.16Z" style="fill:#fbfbfb; stroke-width:0px;"/><path d="M1959.05,1817.62c-55.99-1.19-112.92-2.23-169.56-3.1l-6-108.15c15.62.22,31.1.47,46.38.74l4.31,70.28,9.3.11c28.07.33,57.58.71,87.79,1.13,9.23,12.97,18.49,25.97,27.79,39Z" style="fill:#75b6dc; stroke-width:0px;"/><path d="M1836.59,1653.38c-.81-13.2-1.62-26.4-2.43-39.61-17.01-4.21-34-8.41-50.98-12.58,47.12.03,94.24.09,141.35.17,8.72-15.18,17.4-30.39,26.02-45.63-.3-3.96-.59-7.91-.89-11.87-61.73.17-123.46.34-185.18.51,2.8,50.62,5.61,101.24,8.42,151.86,50.78.7,100.58,1.61,149.02,2.78-1.05-15.07-2.11-30.14-3.17-45.21-27.39-.15-54.78-.29-82.17-.41Z" style="fill:#fbfbfb; stroke-width:0px;"/><path d="M2014.51,1710.87c26.87.31,53.73.65,80.6,1.01,1.84,20.87,3.68,41.76,5.52,62.63-18.03-.35-36.07-.67-54.1-1-.74-9.03-1.49-18.05-2.24-27.08-21.67-.33-43.35-.64-65.02-.94,1.27,16.7,2.54,33.4,3.81,50.1,15.26,11.15,30.58,22.34,45.95,33.58,33.62.72,67.24,1.52,100.85,2.36,12.97-10.21,25.89-20.45,38.76-30.74-2.95-31.11-5.9-62.22-8.84-93.33-50.13-2.49-103.03-4.56-158.1-6.27,4.28,3.23,8.53,6.44,12.82,9.68Z" style="fill:#fbfbfb; stroke-width:0px;"/><path d="M2126.51,1821.44c-33.09-.83-63.95-1.55-94.13-2.2-13.27-9.7-26.5-19.37-39.69-29l-2.63-34.59c15,.21,30,.43,45.01.65.49,5.9,2.23,27.06,2.23,27.06l9.05.16c18.03.32,36.06.65,54.09,1l11.13.21-6.15-69.74c15.44.65,30.52,1.34,45.23,2.05l7.52,79.32c-10.16,8.11-20.78,16.52-31.65,25.09Z" style="fill:#75b6dc; stroke-width:0px;"/><path d="M2114.92,1657.46c-26.03-.42-52.07-.83-78.09-1.22-1.19-14.4-2.39-28.8-3.58-43.2-17.05-5.37-34.09-10.71-51.08-16.03,34.27.06,68.54.14,102.81.22.72,8.13,1.44,16.27,2.16,24.41,21.51.1,43.03.21,64.54.33-1.45-15.24-2.89-30.47-4.34-45.72-3.38-2.5-6.75-5.01-10.11-7.51-11.46-8.49-22.9-16.96-34.31-25.41-25.24.07-50.47.13-75.71.21-9.3.03-18.61.04-27.92.07-10.94,10.63-21.93,21.22-32.95,31.78,2.67,35.04,5.33,70.1,7.99,105.14,9.09,6.86,18.22,13.76,27.35,20.65,55.07,1.71,107.97,3.79,158.1,6.27-.6-6.28-1.19-12.56-1.79-18.84-14.41-10.43-28.77-20.82-43.08-31.16Z" style="fill:#fbfbfb; stroke-width:0px;"/><path d="M2299.12,1677.64c-32.71-10.72-65.31-21.29-97.81-31.75,65.05.55,130.09,1.19,195.12,1.91,1.88,15.9,3.76,31.81,5.63,47.71,40.92.7,81.83,1.45,122.75,2.25-3.87-30.09-7.74-60.18-11.61-90.26-28.96-21.91-57.74-43.57-86.34-65.01-65.21.18-130.43.34-195.64.52-20.14,20.53-40.43,40.9-60.86,61.14,3.37,34.79,6.74,69.59,10.11,104.38,43.28,2.28,84.37,4.88,122.85,7.83-1.4-12.9-2.8-25.81-4.2-38.71Z" style="fill:#fbfbfb; stroke-width:0px;"/><path d="M2560.6,1976.01c-6.3-48.89-12.57-97.76-18.86-146.65-28.31-21.24-56.47-42.23-84.46-62.99-49.69-1.74-99.38-3.38-149.07-4.91-1.63-15.03-3.26-30.07-4.9-45.1-38.47-2.95-79.56-5.55-122.85-7.83,3.16,32.64,6.32,65.29,9.48,97.93,25.95,19.78,52.05,39.72,78.3,59.85,51.54,1.71,103.07,3.57,154.6,5.58,4.81,40.81,9.62,81.61,14.43,122.41-34.79-1.87-69.57-3.65-104.37-5.35-1.9-17.5-3.8-35.02-5.71-52.52-41.71-1.79-83.43-3.46-125.16-5,3.11,32.13,6.22,64.27,9.34,96.4,21.67,16.1,43.44,32.33,65.3,48.69,8.35,6.25,16.71,12.52,25.09,18.82,65.2,3.76,130.38,7.92,195.54,12.46,24.47-18.83,48.76-37.81,72.89-56.96-3.21-24.94-6.42-49.88-9.62-74.82Z" style="fill:#fbfbfb; stroke-width:0px;"/><path d="M2494.24,2097.55c-62.88-4.37-126.38-8.42-188.86-12.03-7.57-5.69-15.14-11.36-22.68-17.01-20.28-15.18-41.04-30.66-61.77-46.07l-7.81-80.6c35.44,1.33,70.7,2.74,105.09,4.21,1.43,13.1,2.85,26.19,4.27,39.29l1.43,13.18,8.53.42c34.09,1.66,69.18,3.46,104.32,5.34l11.86.64-16.83-142.69-8.54-.33c-49.27-1.93-100.21-3.77-151.45-5.48-23.51-18.02-47.8-36.59-72.3-55.27l-7.94-82.01c36.4,1.99,70.86,4.19,102.73,6.57l4.94,45.49,8.69.27c48.96,1.51,98.04,3.12,145.92,4.8,26.15,19.4,52.54,39.08,78.54,58.57l5.38,41.85c4.31,33.54,8.62,67.08,12.94,100.62l.13,1.05c2.92,22.73,5.84,45.45,8.76,68.17-21.36,16.92-43.31,34.06-65.34,51.04Z" style="fill:#75b6dc; stroke-width:0px;"/><path d="M1042.8,1959.25c.23-8.1.47-16.21.71-24.31-5.05.08-10.1.16-15.14.25.08-2.53.15-5.06.23-7.58-2.96.07-5.92.14-8.86.21-.34,10.62-.67,21.23-1.01,31.86,8.03-.15,16.06-.28,24.08-.41Z" style="fill:none; stroke-width:0px;"/><path d="M954.12,1936.53c-.43-2.36-.85-4.73-1.28-7.09-3.78.1-7.53.19-11.27.29-.61,2.36-1.22,4.72-1.83,7.09,4.79-.1,9.58-.19,14.38-.29Z" style="fill:none; stroke-width:0px;"/><path d="M1329.39,1921.97c.33,0,.66,0,.99-.01-.33-.77-.67-1.54-1-2.31,0,.77,0,1.55,0,2.32Z" style="fill:none; stroke-width:0px;"/><path d="M1355.36,1921.63c-.45,0-.91.01-1.36.02.46,1.06.92,2.13,1.38,3.19,0-1.07-.01-2.14-.02-3.21Z" style="fill:none; stroke-width:0px;"/><path d="M1201.76,1923.99c1.37-.03,2.74-.05,4.11-.08.03-2.63.06-5.25.09-7.88-1.39,2.65-2.8,5.3-4.2,7.96Z" style="fill:none; stroke-width:0px;"/><path d="M1167.29,1924.63c1.42-.03,2.83-.05,4.25-.08-1.37-2.72-2.75-5.45-4.12-8.17-.04,2.75-.08,5.5-.13,8.26Z" style="fill:none; stroke-width:0px;"/><path d="M948.24,1903.91c-2.22,8.61-4.44,17.22-6.66,25.83,3.74-.1,7.49-.19,11.27-.29-1.54-8.51-3.08-17.02-4.61-25.54Z" style="fill:none; stroke-width:0px;"/><path d="M698.48,1936.71c1.81-.06,3.66-.12,5.54-.18.24-3.64.48-7.29.72-10.93-2.08,3.69-4.17,7.41-6.26,11.1Z" style="fill:none; stroke-width:0px;"/><path d="M848.87,1932.22c.87-.02,1.73-.05,2.6-.07-.76-2.03-1.53-4.05-2.29-6.09-.1,2.05-.21,4.11-.31,6.16Z" style="fill:none; stroke-width:0px;"/><path d="M665.44,1937.79c1.78-.06,3.62-.12,5.54-.18-1.59-3.6-3.19-7.2-4.77-10.8-.25,3.66-.51,7.32-.77,10.99Z" style="fill:none; stroke-width:0px;"/><path d="M783.32,1940.59c-.35-2.15-.69-4.3-1.03-6.45-3.91.12-7.77.23-11.55.34-.6,2.17-1.19,4.34-1.78,6.51,4.79-.13,9.58-.27,14.37-.4Z" style="fill:none; stroke-width:0px;"/><path d="M778.06,1907.71c-2.43,8.92-4.88,17.85-7.32,26.77,3.78-.11,7.64-.23,11.55-.34-1.41-8.81-2.83-17.62-4.23-26.43Z" style="fill:none; stroke-width:0px;"/><path d="M1946.61,1931.19c1.59.16,3.15.33,4.7.49-.23-3.19-.46-6.38-.69-9.56-1.33,3.03-2.68,6.05-4.01,9.07Z" style="fill:none; stroke-width:0px;"/><path d="M1912.56,1928.3c1.24.09,2.47.18,3.7.27-1.39-2.45-2.79-4.91-4.18-7.36.16,2.37.32,4.73.48,7.1Z" style="fill:none; stroke-width:0px;"/><path d="M700.62,1988.23c7.45-.26,14.9-.51,22.35-.76,1.09-17.21,2.18-34.42,3.28-51.63-7.85.24-15.27.48-22.23.7-1.13,17.23-2.27,34.46-3.4,51.69Z" style="fill:#fbfbfb; stroke-width:0px;"/><path d="M707.93,1877.07c-7.24,12.91-14.5,25.84-21.79,38.78-5.53-12.56-11.04-25.14-16.53-37.73-7.34.21-14.67.41-22.01.63-1.44,19.93-2.87,39.86-4.31,59.79,5.28-.18,12.73-.43,22.15-.74.25-3.66.51-7.32.77-10.99,1.58,3.61,3.18,7.2,4.77,10.8,8-.26,17.2-.56,27.5-.89,2.08-3.7,4.18-7.41,6.26-11.1-.24,3.64-.48,7.28-.72,10.93,6.96-.22,14.38-.45,22.23-.7,1.26-19.78,2.51-39.57,3.77-59.35-7.36.19-14.72.38-22.09.58Z" style="fill:#fbfbfb; stroke-width:0px;"/><path d="M639.56,1990.43c7.42-.28,14.86-.56,22.28-.83,1.21-17.27,2.41-34.54,3.61-51.82-9.42.31-16.87.56-22.15.74-1.25,17.3-2.49,34.6-3.74,51.91Z" style="fill:#fbfbfb; stroke-width:0px;"/><path d="M682.85,1964.47c5.23-9.27,10.43-18.51,15.64-27.75-10.3.33-19.5.63-27.5.89,3.95,8.96,7.89,17.92,11.86,26.86Z" style="fill:#fbfbfb; stroke-width:0px;"/><path d="M764.46,1875.62c-5.42,19.83-10.88,39.68-16.36,59.54,7.26-.22,14.81-.45,22.63-.68,2.45-8.93,4.89-17.85,7.32-26.77,1.4,8.81,2.82,17.62,4.23,26.43,7.32-.22,14.86-.44,22.61-.66-3.18-19.52-6.34-39.04-9.48-58.59-10.32.24-20.64.49-30.96.74Z" style="fill:#fbfbfb; stroke-width:0px;"/><path d="M783.32,1940.59c-4.79.13-9.58.27-14.37.4.6-2.17,1.19-4.34,1.78-6.51-7.83.23-15.37.46-22.63.68-4.77,17.3-9.56,34.61-14.38,51.94,7.58-.24,15.16-.49,22.74-.73,2.28-8.28,4.56-16.55,6.84-24.83,7.76-.23,15.53-.46,23.29-.68,1.32,8.16,2.65,16.31,3.98,24.46,7.58-.22,15.16-.45,22.74-.66-2.83-17.05-5.63-34.12-8.41-51.19-7.75.23-15.29.45-22.61.66.35,2.15.69,4.3,1.03,6.45Z" style="fill:#fbfbfb; stroke-width:0px;"/><path d="M877.63,1873.11c-.92,19.22-1.83,38.44-2.74,57.66-7.18-19.03-14.31-38.09-21.4-57.16-7.87.17-15.73.33-23.61.51-1.03,19.58-2.06,39.15-3.1,58.73,7.21-.21,14.57-.41,22.08-.62.1-2.05.21-4.11.31-6.16.76,2.03,1.53,4.06,2.29,6.09,14.6-.41,29.75-.82,45.39-1.24.88-19.41,1.76-38.82,2.63-58.22-7.29.14-14.58.28-21.86.42Z" style="fill:#fbfbfb; stroke-width:0px;"/><path d="M824.07,1984.35c7.4-.22,14.8-.41,22.2-.62.86-17.17,1.73-34.34,2.59-51.51-7.51.21-14.87.42-22.08.62-.9,17.17-1.81,34.34-2.72,51.51Z" style="fill:#fbfbfb; stroke-width:0px;"/><path d="M870.63,1983.09c7.99-.21,15.99-.41,23.98-.61-.03-.04-.05-.09-.08-.13.78-17.15,1.55-34.29,2.33-51.44-15.63.42-30.78.83-45.39,1.24,6.35,16.99,12.73,33.98,19.16,50.94Z" style="fill:#fbfbfb; stroke-width:0px;"/><path d="M934.02,1872.04c-5.01,19.42-10.04,38.85-15.1,58.29,7.46-.2,15.01-.39,22.66-.59,2.22-8.61,4.44-17.22,6.66-25.83,1.53,8.52,3.07,17.03,4.61,25.54,7.45-.19,14.98-.38,22.59-.57-3.51-19.12-6.99-38.24-10.44-57.38-10.33.17-20.65.35-30.97.54Z" style="fill:#fbfbfb; stroke-width:0px;"/><path d="M954.12,1936.53c-4.8.1-9.59.19-14.38.29.61-2.36,1.22-4.72,1.83-7.09-7.65.2-15.2.39-22.66.59-4.5,17.29-9.02,34.59-13.56,51.9,7.58-.18,15.17-.36,22.74-.54,2.13-8.18,4.26-16.36,6.38-24.54,7.76-.17,15.52-.33,23.29-.5,1.48,8.1,2.95,16.18,4.44,24.28,7.58-.17,15.16-.32,22.74-.47-3.2-17.19-6.37-34.38-9.53-51.58-7.61.19-15.14.38-22.59.57.43,2.36.85,4.73,1.28,7.09Z" style="fill:#fbfbfb; stroke-width:0px;"/><path d="M1028.98,1914.96c-.13,4.21-.26,8.43-.39,12.64,12.28-.29,24.72-.57,37.29-.85.11-4.11.22-8.23.33-12.34-12.41.17-24.81.36-37.23.55Z" style="fill:#fbfbfb; stroke-width:0px;"/><path d="M1020.91,1890.78c7.96-.12,15.93-.24,23.89-.35-.08,2.8-.16,5.6-.24,8.4,7.36-.11,14.72-.21,22.09-.32.14-5.68.3-11.38.45-17.07-4.66-3.75-9.32-7.51-13.97-11.26-13.13.17-26.27.36-39.39.55-4.89,3.9-9.78,7.8-14.66,11.7-.52,15.31-1.05,30.61-1.57,45.91,7.35-.18,14.76-.36,22.24-.53.39-12.34.78-24.69,1.18-37.03Z" style="fill:#fbfbfb; stroke-width:0px;"/><path d="M1028.36,1935.18c5.04-.08,10.09-.16,15.14-.25-.24,8.1-.48,16.21-.71,24.31-8.02.13-16.05.27-24.08.41.34-10.62.67-21.24,1.01-31.86-7.47.18-14.89.35-22.24.53-.46,13.5-.93,27-1.39,40.49,4.61,3.71,9.21,7.42,13.83,11.13,13.37-.25,26.74-.49,40.11-.71,4.92-3.87,9.84-7.75,14.75-11.62.36-13.63.72-27.26,1.08-40.89-12.57.28-25.01.57-37.29.85-.08,2.53-.15,5.06-.23,7.58Z" style="fill:#fbfbfb; stroke-width:0px;"/><path d="M1075.25,1978.85c19.39-.3,38.78-.57,58.18-.82.12-6.69.26-13.39.38-20.09-11.93.15-23.88.3-35.81.47.19-8.09.37-16.18.56-24.27,10.12-.14,20.24-.26,30.36-.38.06-2.79.11-5.58.17-8.37-17.7.36-35.22.74-52.5,1.12-.44,17.45-.88,34.89-1.33,52.34Z" style="fill:#fbfbfb; stroke-width:0px;"/><path d="M1099.01,1913.96c.19-8.08.38-16.18.56-24.26,11.7-.14,23.39-.28,35.08-.4.13-6.69.26-13.39.38-20.09-19,.2-38.01.41-57.01.64-.48,18.88-.96,37.77-1.44,56.65,17.28-.38,34.79-.75,52.5-1.12.08-3.93.16-7.86.23-11.8-10.1.12-20.19.24-30.3.36Z" style="fill:#fbfbfb; stroke-width:0px;"/><path d="M1144.19,1977.89c7.43-.09,14.86-.17,22.29-.26.26-17.66.54-35.33.81-53-7.41.14-14.8.29-22.16.43l-.93,52.82Z" style="fill:#fbfbfb; stroke-width:0px;"/><path d="M1206.47,1868.58c-6.54,12.5-13.11,25-19.69,37.52-6.24-12.4-12.46-24.8-18.65-37.2-7.34.06-14.68.13-22.02.21l-.99,55.96c7.36-.15,14.75-.29,22.16-.43.04-2.75.08-5.5.13-8.26,1.37,2.72,2.75,5.45,4.12,8.17,10.03-.19,20.11-.38,30.22-.56,1.4-2.65,2.8-5.31,4.2-7.96-.03,2.63-.06,5.25-.09,7.88,7.39-.13,14.81-.26,22.24-.39.15-18.36.31-36.73.46-55.09-7.37.05-14.73.1-22.1.15Z" style="fill:#fbfbfb; stroke-width:0px;"/><path d="M1205.29,1977.25c7.45-.06,14.91-.13,22.37-.18.15-17.85.3-35.69.45-53.54-7.43.13-14.84.26-22.24.39-.19,17.78-.39,35.56-.58,53.33Z" style="fill:#fbfbfb; stroke-width:0px;"/><path d="M1186.16,1953.57c5.22-9.87,10.41-19.72,15.6-29.58-10.11.18-20.19.37-30.22.56,4.86,9.67,9.73,19.34,14.63,29.01Z" style="fill:#fbfbfb; stroke-width:0px;"/><path d="M1238.41,1976.98c19.39-.15,38.78-.26,58.18-.34,0-6.68,0-13.36.01-20.04-11.93.05-23.88.11-35.81.19.04-8.07.07-16.13.12-24.19,10.12-.06,20.24-.12,30.36-.16,0-3.31,0-6.62.01-9.93-17.54.26-35.05.54-52.48.83-.13,17.88-.26,35.76-.38,53.64Z" style="fill:#fbfbfb; stroke-width:0px;"/><path d="M1260.99,1912.47c.04-8.07.08-16.13.12-24.19,11.69-.07,23.38-.12,35.08-.17,0-6.68,0-13.36.01-20.04-19,.07-38.01.17-57.01.29-.13,18.33-.26,36.65-.39,54.98,17.43-.29,34.94-.57,52.48-.83,0-3.39,0-6.79.01-10.18-10.1.04-20.2.1-30.3.15Z" style="fill:#fbfbfb; stroke-width:0px;"/><path d="M1355.38,1924.84c-.46-1.06-.92-2.13-1.38-3.19-7.87.1-15.74.2-23.62.3,7.8,18.17,15.64,36.34,23.54,54.52,7.99-.01,15.99-.02,23.98-.02-.03-.05-.05-.09-.08-.14-.16-18.31-.31-36.62-.47-54.94-7.33.08-14.66.17-22,.26,0,1.07.01,2.14.02,3.21Z" style="fill:#fbfbfb; stroke-width:0px;"/><path d="M1355.04,1867.9c.11,17.92.21,35.83.33,53.74,7.34-.09,14.67-.18,22-.26-.15-17.84-.31-35.67-.46-53.5-7.29.01-14.58.02-21.87.03Z" style="fill:#fbfbfb; stroke-width:0px;"/><path d="M1330.9,1867.96c-7.87.01-15.74.04-23.62.07.01,18.08.02,36.16.04,54.25,7.36-.11,14.72-.21,22.08-.31,0-.77,0-1.55,0-2.32.33.77.67,1.54,1,2.31,7.88-.1,15.75-.21,23.62-.3-7.75-17.9-15.45-35.8-23.11-53.69Z" style="fill:#fbfbfb; stroke-width:0px;"/><path d="M1307.35,1976.59c7.4-.03,14.81-.05,22.21-.07-.05-18.18-.11-36.37-.16-54.56-7.36.1-14.72.2-22.08.31.01,18.11.02,36.22.04,54.32Z" style="fill:#fbfbfb; stroke-width:0px;"/><path d="M1453.77,1887.97c-.11-6.69-.23-13.37-.34-20.06-21.94-.05-43.88-.06-65.82-.05.07,6.68.13,13.36.19,20.04,7.31,0,14.61,0,21.92,0,.14,11.04.27,22.08.4,33.12,7.42-.07,14.83-.14,22.23-.2-.16-10.96-.32-21.93-.48-32.89,7.3,0,14.6.03,21.91.04Z" style="fill:#fbfbfb; stroke-width:0px;"/><path d="M1410.79,1976.47c7.46.01,14.92.03,22.37.05-.27-18.56-.54-37.12-.82-55.69-7.39.06-14.8.13-22.23.2.22,18.48.45,36.96.67,55.44Z" style="fill:#fbfbfb; stroke-width:0px;"/><path d="M1503.22,1921.09c4.85,3.84,9.7,7.67,14.56,11.5,10.09.06,20.19.13,30.28.2.23,8.08.45,16.16.68,24.26-7.49-.06-14.98-.12-22.47-.16-.08-2.93-.15-5.87-.22-8.8-7.41-.05-14.82-.09-22.22-.13.13,5.84.27,11.67.4,17.52,4.87,3.81,9.74,7.62,14.63,11.45,12.83.09,25.67.19,38.5.3,4.63-3.75,9.26-7.49,13.88-11.24-.42-13.92-.84-27.83-1.26-41.75-1.68-1.34-3.35-2.67-5.03-4.01-20.3,0-40.91.06-61.75.15,0,.24.01.48.02.72Z" style="fill:#fbfbfb; stroke-width:0px;"/><path d="M1525.15,1912.49c-.2-8.08-.41-16.16-.61-24.25,7.43.04,14.87.09,22.3.13.08,2.72.15,5.45.23,8.17,7.36.05,14.72.09,22.08.15-.17-5.64-.34-11.28-.5-16.92-4.81-3.82-9.6-7.64-14.39-11.46-12.68-.07-25.36-.14-38.03-.2-4.63,3.79-9.29,7.58-13.94,11.37.31,13.63.62,27.25.93,40.88,20.84-.09,41.45-.14,61.75-.15-3.15-2.51-6.3-5.03-9.44-7.54-10.12-.07-20.24-.14-30.37-.19Z" style="fill:#fbfbfb; stroke-width:0px;"/><path d="M1607.7,1937.4c.46,13.45.93,26.9,1.39,40.34,7.53.08,15.06.18,22.59.27-.49-13.41-.99-26.82-1.48-40.23,2.09-5.79,4.16-11.58,6.24-17.37-11.83-.07-23.81-.12-35.92-.15,2.39,5.71,4.78,11.42,7.18,17.14Z" style="fill:#fbfbfb; stroke-width:0px;"/><path d="M1631.38,1868.88c-4.43,13.51-8.88,27.01-13.36,40.5-5.52-13.59-11.02-27.17-16.48-40.75-7.53-.06-15.08-.12-22.62-.16,7.16,17.24,14.37,34.51,21.6,51.78,12.11.03,24.09.08,35.92.15,6.14-17.09,12.26-34.19,18.32-51.31-7.8-.08-15.59-.15-23.38-.22Z" style="fill:#fbfbfb; stroke-width:0px;"/><path d="M1689.34,1914.02c-.35-8.12-.7-16.25-1.06-24.38,7.42.09,14.86.19,22.29.27.13,2.74.25,5.49.38,8.23,7.36.09,14.72.19,22.08.3-.27-5.68-.55-11.36-.82-17.03-4.88-3.88-9.74-7.75-14.6-11.62-12.68-.15-25.35-.3-38.03-.43-4.58,3.78-9.14,7.55-13.73,11.33.55,13.32,1.09,26.64,1.64,39.95,20.91.19,41.27.45,60.95.78-2.91-2.33-5.83-4.66-8.74-6.99-10.13-.15-20.25-.28-30.37-.41Z" style="fill:#fbfbfb; stroke-width:0px;"/><path d="M1667.57,1922.51c4.92,3.89,9.85,7.78,14.77,11.67,10.09.13,20.19.27,30.28.42.37,8.14.75,16.27,1.12,24.41-7.48-.12-14.98-.24-22.46-.34-.13-2.95-.26-5.9-.39-8.85-7.4-.11-14.81-.21-22.21-.31.24,5.87.48,11.74.73,17.61,4.94,3.87,9.89,7.74,14.84,11.62,12.83.2,25.67.41,38.5.63,4.56-3.73,9.11-7.47,13.66-11.2-.67-14.01-1.35-28.01-2.03-42.02-1.98-1.58-3.95-3.16-5.93-4.74-19.69-.33-40.04-.59-60.95-.78.03.62.05,1.24.08,1.87Z" style="fill:#fbfbfb; stroke-width:0px;"/><path d="M1809.25,1891.37c-.38-6.77-.76-13.55-1.16-20.33-21.94-.34-43.87-.65-65.81-.95.33,6.76.67,13.5,1,20.25,7.31.11,14.6.21,21.91.32.55,10.5,1.09,21,1.64,31.51,7.53.17,14.94.36,22.23.56-.57-10.57-1.15-21.15-1.72-31.72,7.31.12,14.6.24,21.91.36Z" style="fill:#fbfbfb; stroke-width:0px;"/><path d="M1769.85,1980.23c7.45.15,14.9.3,22.36.45-1.05-19.31-2.1-38.63-3.15-57.95-7.28-.2-14.69-.38-22.23-.56,1,19.35,2.01,38.7,3.02,58.05Z" style="fill:#fbfbfb; stroke-width:0px;"/><path d="M1825.09,1981.39c19.39.43,38.78.9,58.17,1.38-.43-6.8-.87-13.6-1.31-20.41-11.93-.29-23.86-.56-35.8-.83-.5-8.19-.98-16.38-1.48-24.57,10.12.21,20.23.42,30.35.65-.25-3.88-.49-7.76-.74-11.63-16.41-.85-33.96-1.59-52.52-2.24,1.11,19.22,2.22,38.43,3.33,57.65Z" style="fill:#fbfbfb; stroke-width:0px;"/><path d="M1843.44,1916.52c-.5-8.19-.98-16.38-1.48-24.57,11.69.21,23.38.42,35.07.65-.43-6.8-.87-13.6-1.31-20.4-19-.35-38-.68-57-.98,1.01,17.5,2.02,35.01,3.04,52.52,18.56.64,36.12,1.39,52.52,2.24-.19-2.95-.37-5.89-.56-8.84-10.09-.22-20.19-.42-30.28-.62Z" style="fill:#fbfbfb; stroke-width:0px;"/><path d="M1894.02,1983.04c7.42.2,14.85.39,22.27.59-1.24-18.44-2.49-36.89-3.73-55.33-7.1-.51-14.51-.99-22.2-1.44,1.22,18.73,2.44,37.46,3.66,56.18Z" style="fill:#fbfbfb; stroke-width:0px;"/><path d="M1933.97,1959.8c4.24-9.52,8.44-19.06,12.64-28.6-9.32-.94-19.46-1.82-30.35-2.62,5.89,10.4,11.79,20.8,17.71,31.22Z" style="fill:#fbfbfb; stroke-width:0px;"/><path d="M1969.23,1874.06c-7.36-.16-14.72-.31-22.09-.47-5.49,12.6-11,25.18-16.55,37.75-7.28-12.86-14.54-25.7-21.77-38.52-7.34-.15-14.67-.29-22.01-.43,1.18,18.16,2.37,36.31,3.55,54.47,7.7.45,15.1.93,22.2,1.44-.16-2.37-.32-4.73-.48-7.1,1.39,2.45,2.79,4.91,4.18,7.36,10.89.81,21.03,1.68,30.35,2.62,1.33-3.03,2.68-6.05,4.01-9.07.23,3.19.46,6.38.69,9.56,8.15.87,15.63,1.8,22.39,2.8l-4.46-60.42Z" style="fill:#fbfbfb; stroke-width:0px;"/><path d="M1951.3,1931.68c1.27,17.68,2.53,35.36,3.8,53.04,7.45.22,14.9.43,22.35.65l-3.76-50.89c-6.76-.99-14.24-1.92-22.39-2.8Z" style="fill:#fbfbfb; stroke-width:0px;"/><path d="M622.59,1925.95c-49.34,1.63-98.68,3.41-148.01,5.34-.65,7.31-1.3,14.62-1.95,21.92,26.8-1.34,113.45-5.58,148.39-6.12.52-7.05,1.05-14.1,1.57-21.15Z" style="fill:#fbfbfb; stroke-width:0px;"/><path d="M1996.44,1925.95c49.34,1.63,98.68,3.41,148.01,5.34.65,7.31,1.3,14.62,1.95,21.92-26.8-1.34-113.45-5.58-148.39-6.12-.52-7.05-1.05-14.1-1.57-21.15Z" style="fill:#fbfbfb; stroke-width:0px;"/><path d="M621.02,1947.09c-34.95.54-121.59,4.78-148.39,6.12,0,.03,0,.07,0,.1l148.36-5.59c.02-.21.03-.42.05-.64Z" style="fill:#fbfbfb; stroke-width:0px;"/></svg>