
<svg xmlns="http://www.w3.org/2000/svg" id="Layer_1" viewBox="0 0 2592.98 689.52"><path d="M2551.83,262.33l-19.95-162.43-120.69-91.96-277.97-.84-189.51-.57-.1.1-268.46-.79-.1-.09-199.27-.57h0s-335.65-.96-335.65-.96l-354.03-.97v.1s-143.81-.78-143.81-.78l-.12-.2-.09.2-197.3-1.07L168.56,0l-16.83,15.22c-24.69,22.34-49.05,44.44-72.38,65.69l-15.94,14.51-30.83,239.76L0,588.45l19.93,20.32c20.16,20.55,40.96,41.43,61.81,62.05l18.9,18.7,26.52-1.89c71.08-5.08,143.18-9.73,214.27-13.84l20.42-1.18,15.26-13.62c23.85-21.3,48.08-42.87,74.07-65.95l2.07-1.84c658.44-34.47,1069.36-65.78,1688.36,3.98l101.22,76.46,233.07,16.22,117.08-90.55-41.16-334.98Z" style="fill:#1f2128; stroke-width:0px;"></path><path d="M913.09,111.87c2.39,23.47,4.81,46.92,7.26,70.37-.31,7.63-.61,15.26-.92,22.89,6.18-.11,12.38-.21,18.59-.32-2.7-7.75-5.42-15.49-8.1-23.24-5.67-23.21-11.27-46.45-16.83-69.7Z" style="fill:none; stroke-width:0px;"></path><path d="M1003.93,203.76c-2.82.04-5.65.09-8.47.13,4.73,18.51,9.48,37.01,14.28,55.5-1.96-18.54-3.89-37.09-5.82-55.63Z" style="fill:none; stroke-width:0px;"></path><path d="M1323.97,101.45c16.01,5.68,32.04,11.36,48.12,17.05.25,20.84.5,41.66.75,62.49,15.84-.02,31.68-.04,47.53-.05-.47-26.57-.94-53.14-1.4-79.71-31.67.06-63.33.14-95,.22Z" style="fill:none; stroke-width:0px;"></path><path d="M133.52,159.04c29.38,8.99,58.86,17.88,88.44,26.68-1.39,12.37-2.77,24.74-4.15,37.11,27.32-.9,57.67-1.87,90.71-2.89,2.21-21.3,4.42-42.59,6.62-63.88-60.54.92-121.08,1.91-181.61,2.98Z" style="fill:none; stroke-width:0px;"></path><path d="M736.12,107.23c-3.97-.11-7.94-.21-11.9-.31-6.32,34.13-12.71,68.29-19.13,102.48,13.82-.31,27.77-.61,41.84-.92-3.66-33.71-7.27-67.46-10.81-101.25Z" style="fill:none; stroke-width:0px;"></path><path d="M748.72,225c-.6-5.5-1.19-11.02-1.79-16.52-14.07.3-28.02.61-41.84.92-1.02,5.44-2.04,10.87-3.06,16.31,15.57-.24,31.13-.48,46.69-.71Z" style="fill:none; stroke-width:0px;"></path><path d="M1525.46,102.81c15.12,5.85,30.27,11.71,45.45,17.58.48,13.63.96,27.26,1.43,40.88,17.46.03,34.93.05,52.38.09-.8-19.55-1.61-39.09-2.4-58.64-32.29.02-64.58.04-96.86.08Z" style="fill:none; stroke-width:0px;"></path><path d="M57.29,508.99c-2.35,19.17-4.71,38.35-7.07,57.52,20.52,20.69,41.18,41.2,62.02,61.57,72.21-5.57,144.45-10.65,216.72-15.23,9.04-8.17,18.06-16.3,27.06-24.41,15.85-14.29,31.64-28.49,47.37-42.6,5.1-55.7,10.21-111.4,15.31-167.1-42.37,1.3-84.73,2.7-127.07,4.19-4.5,43.38-8.99,86.76-13.48,130.15-31.15,1.74-62.3,3.56-93.44,5.46,11.03-98.56,22.06-197.14,33.1-295.7-55.52,1.82-98.49,3.35-125.89,4.35-11.54,93.94-23.08,187.87-34.62,281.81Z" style="fill:#fbfbfb; stroke-width:0px;"></path><path d="M116,617.76c-18.49-18.1-37.04-36.51-55.25-54.85l40.06-326.05c24.65-.89,60.63-2.16,105.78-3.65-10.61,94.73-33.13,296.03-33.13,296.03l11.87-.72c30.98-1.89,62.4-3.72,93.39-5.46l8.51-.48.88-8.48c4.09-39.5,8.18-78.99,12.28-118.49l.31-3c35.01-1.23,70.92-2.41,107.03-3.54l-13.92,151.94c-14.51,13.03-29.45,26.47-44.46,39.99-8.14,7.34-16.3,14.69-24.48,22.08-69.19,4.4-139.41,9.33-208.85,14.67Z" style="fill:#75b6dc; stroke-width:0px;"></path><path d="M303.93,264.19c41.88-1.44,83.76-2.8,125.64-4.09,1.34-14.61,2.68-29.23,4.02-43.84-44.91,1.26-86.78,2.51-125.07,3.69-1.53,14.75-3.05,29.5-4.59,44.24Z" style="fill:#fbfbfb; stroke-width:0px;"></path><path d="M317.56,229.67c34.93-1.07,70.17-2.11,105.04-3.1l-2.18,23.81c-35.74,1.11-71.09,2.26-105.36,3.42l2.5-24.13Z" style="fill:#75b6dc; stroke-width:0px;"></path><path d="M378.84,52.11l-201.19.57c-24.01,21.97-48.16,44.13-72.47,66.51-4.42,36-8.84,71.99-13.27,107.99,27.4-1,70.38-2.52,125.89-4.35,1.39-12.37,2.77-24.74,4.15-37.11-29.58-8.8-59.06-17.69-88.44-26.68,60.53-1.07,121.07-2.06,181.61-2.98-2.21,21.29-4.41,42.59-6.62,63.88,38.29-1.18,80.16-2.42,125.07-3.69,3.08-33.59,6.16-67.18,9.24-100.77-21.5-20.96-42.82-42.09-63.98-63.38Z" style="fill:#fbfbfb; stroke-width:0px;"></path><path d="M449.16,341.54c48.78-1.57,97.58-3.01,146.38-4.32,1.46-19.68,2.92-39.35,4.38-59.03-27.25.6-54.48,1.24-81.73,1.9,1.83-22.09,3.65-44.19,5.48-66.28-21.64.57-42.76,1.14-63.29,1.7-3.74,42.01-7.48,84.02-11.21,126.02Z" style="fill:#fbfbfb; stroke-width:0px;"></path><path d="M469.55,225.27c14.15-.39,28.56-.78,43.23-1.17l-5.48,66.26,11.13-.27c23.58-.58,47.31-1.13,70.7-1.66l-2.89,39.03c-41.09,1.12-83.41,2.37-126.12,3.72l9.43-105.92Z" style="fill:#75b6dc; stroke-width:0px;"></path><path d="M534.82,78.86c.75-9.06,1.49-18.13,2.25-27.2l-88.08.25c-.39,4.17-.76,8.35-1.15,12.52,2.21,1.66,4.42,3.32,6.63,4.96,3.79,2.85,7.59,5.7,11.39,8.53,2.12,1.58,4.22,3.16,6.34,4.73-3.94,44.28-7.88,88.57-11.82,132.85,20.53-.57,41.65-1.14,63.29-1.7,3.68-44.53,7.36-89.06,11.04-133.58.04-.46.07-.91.11-1.37Z" style="fill:#fbfbfb; stroke-width:0px;"></path><path d="M748.72,225c-15.56.23-31.12.47-46.69.71,1.02-5.44,2.04-10.87,3.06-16.31-20.24.45-40.19.91-59.83,1.38-11.57,42.34-23.27,84.76-35.08,127.29,23.91-.63,47.83-1.24,71.74-1.82,4.83-19.1,9.63-38.18,14.42-57.25,17.33-.34,34.66-.67,51.99-.98,2.46,18.86,4.94,37.71,7.44,56.54,24.69-.53,49.37-1.04,74.06-1.5-7.12-41.89-14.1-83.84-20.97-125.86-20.88.42-41.53.85-61.92,1.28.6,5.51,1.18,11.02,1.79,16.52Z" style="fill:#fbfbfb; stroke-width:0px;"></path><path d="M623.43,327.71c9.89-35.66,19.8-71.6,29.51-107.11,13.22-.31,26.57-.62,40.05-.92l-3.05,16.22,16.63-.25c14.1-.22,28.2-.43,42.3-.64l10.99-.16s-1.6-14.7-1.81-16.59c14-.3,28.12-.59,42.34-.88,6.06,37.02,11.86,71.86,17.63,105.91-17.75.34-35.67.71-53.52,1.09-2-15.1-4.06-30.77-6.26-47.65l-1.16-8.86-8.94.16c-17.34.31-34.67.64-52.01.98l-7.64.15-1.86,7.41c-4.17,16.61-8.35,33.23-12.55,49.87-16.34.4-33.07.82-50.65,1.28Z" style="fill:#75b6dc; stroke-width:0px;"></path><path d="M654.42,52.97c-.28,3.96-.56,7.92-.84,11.89,8.7,6.23,17.43,12.46,26.16,18.67-11.37,42.33-22.87,84.74-34.49,127.25,19.64-.46,39.6-.92,59.83-1.38,6.42-34.19,12.81-68.35,19.13-102.48,3.96.11,7.93.21,11.9.31,3.54,33.8,7.15,67.54,10.81,101.25,20.4-.44,41.05-.87,61.92-1.28-8.4-51.43-16.63-102.96-24.64-154.61-43.27.12-86.53.25-129.79.38Z" style="fill:#fbfbfb; stroke-width:0px;"></path><path d="M983.2,51.91c-.12,3.75-.25,7.51-.37,11.26,8,5.54,16.02,11.06,24.05,16.59-1.21,39.23-2.41,78.46-3.61,117.69.22,2.11.44,4.21.66,6.32,21.92-.33,43.97-.65,66.14-.94,1.16-50.39,2.32-100.78,3.48-151.17l-90.35.26Z" style="fill:#fbfbfb; stroke-width:0px;"></path><path d="M994.28,199.26c-17.64-48.97-34.96-98.04-51.95-147.23-36.32.1-72.63.21-108.95.32-.19,3.78-.38,7.56-.57,11.34,8.49,6.03,17,12.06,25.53,18.06-1.98,41.54-3.95,83.07-5.93,124.6,22.13-.42,44.47-.83,67.01-1.22.31-7.63.61-15.26.92-22.89-2.45-23.45-4.87-46.91-7.26-70.37,5.56,23.25,11.16,46.49,16.83,69.7,2.69,7.75,5.4,15.5,8.1,23.24,19.03-.32,38.18-.63,57.44-.93-.39-1.54-.79-3.08-1.18-4.63Z" style="fill:#fbfbfb; stroke-width:0px;"></path><path d="M1009.74,259.39c-4.8-18.49-9.55-36.99-14.28-55.5-19.27.3-38.42.6-57.44.93,14.67,42.02,29.57,83.97,44.71,125.85,28.14-.38,56.28-.73,84.42-1.03.97-42.27,1.95-84.54,2.92-126.81-22.17.3-44.22.61-66.14.94,1.92,18.55,3.86,37.09,5.82,55.63Z" style="fill:#fbfbfb; stroke-width:0px;"></path><path d="M989.72,320.57c-12.54-34.75-25.19-70.31-37.69-105.98,11.85-.2,23.75-.39,35.7-.57,4.44,17.35,8.49,33.08,12.34,47.89l19.62-3.56c-1.57-14.91-3.13-29.83-4.69-44.75,14.88-.22,29.83-.43,44.83-.64l-2.46,106.78c-23.03.26-45.72.54-67.66.83Z" style="fill:#75b6dc; stroke-width:0px;"></path><path d="M846.4,332.85c22.65-.42,45.3-.81,67.96-1.17,1.69-42.18,3.38-84.36,5.08-126.54-22.54.39-44.89.8-67.01,1.22-2.01,42.17-4.01,84.33-6.02,126.5Z" style="fill:#fbfbfb; stroke-width:0px;"></path><path d="M861.96,216.17c15.58-.29,31.27-.58,47.05-.85-1.43,35.51-2.85,71.01-4.27,106.51-15.46.25-31.26.52-47.85.82l5.07-106.48Z" style="fill:#75b6dc; stroke-width:0px;"></path><path d="M1236.21,160.92c-26.02-.1-52.04-.18-78.04-.25.18-13.96.36-27.92.54-41.89-16.55-5.08-33.08-10.17-49.57-15.25,34.27-.14,68.55-.27,102.82-.38-.05,7.84-.11,15.68-.16,23.53,21.52-.08,43.03-.16,64.55-.22,0-14.59-.02-29.18-.03-43.77-13.82-10.5-27.59-21-41.32-31.51l-103.63.29c-11.96,10.34-23.95,20.68-36,31.03-.7,34.22-1.39,68.45-2.09,102.66,7.31,5.69,14.64,11.38,21.98,17.07,53.32-.64,107.17-1.17,161.14-1.55,0-3.47,0-6.94,0-10.41-13.44-9.79-26.84-19.58-40.19-29.36Z" style="fill:#fbfbfb; stroke-width:0px;"></path><path d="M1115.27,202.24c5.11,3.96,10.21,7.92,15.34,11.87,26.87-.17,53.73-.32,80.61-.44-.14,20.13-.27,40.26-.4,60.38-18.04.09-36.08.2-54.12.32.12-8.75.23-17.5.34-26.25-21.67.14-43.35.29-65.04.46-.33,16.3-.67,32.6-.99,48.91,14.22,10.5,28.5,21,42.83,31.5,33.62-.28,67.26-.5,100.89-.67,13.97-10.23,27.89-20.43,41.76-30.64-.02-32.33-.05-64.66-.08-96.99-53.97.38-107.81.91-161.14,1.55Z" style="fill:#fbfbfb; stroke-width:0px;"></path><path d="M1137.07,318.97c-12.33-9.04-24.4-17.91-35.96-26.45.23-11.34.46-22.67.69-34.01,15.04-.11,30.08-.22,45.11-.32-.07,5.35-.14,10.7-.21,16.05l-.14,10.2,10.2-.07c18.04-.12,36.07-.23,54.11-.32l9.89-.05.06-9.88c.13-20.12.27-40.25.4-60.37l.02-2.61c15.2-.13,30.28-.26,45.18-.37l.06,81.87c-11.65,8.56-23.33,17.13-35.05,25.71-32.11.17-63.82.38-94.36.63Z" style="fill:#75b6dc; stroke-width:0px;"></path><path d="M1450.44,51.58c-.36-.34-.72-.67-1.08-1l-166.99.47c0,3.86,0,7.71.02,11.57,8.67,5.82,17.36,11.65,26.07,17.47.18,40.13.37,80.26.55,120.39,59.04-.35,118.14-.52,176.79-.48-.99-39.53-1.98-79.06-2.97-118.59-10.84-9.95-21.64-19.9-32.39-29.83ZM1372.84,181c-.25-20.83-.5-41.66-.75-62.49-16.07-5.69-32.11-11.37-48.12-17.05,31.67-.08,63.33-.15,95-.22.46,26.57.93,53.14,1.4,79.71-15.85.01-31.69.03-47.53.05Z" style="fill:#fbfbfb; stroke-width:0px;"></path><path d="M1309.6,328.06c21.66-.05,43.34-.08,65.01-.08-.39-32.01-.77-64.04-1.16-96.06,26.17-.02,52.33-.02,78.49,0,11.34-10.35,22.63-20.71,33.88-31.07,0-.28-.01-.56-.02-.84-58.65-.05-117.75.13-176.79.48.2,42.53.39,85.05.59,127.58Z" style="fill:#fbfbfb; stroke-width:0px;"></path><path d="M1319.06,210.42c48.4-.27,96.1-.41,142.03-.43-4.38,4.01-8.72,7.99-13.02,11.92-11.64,0-23.27-.01-34.91-.01-13.24,0-26.48,0-39.71.02h-10.11s1.16,96.06,1.16,96.06c-14.95,0-29.99.03-44.94.06l-.5-107.61Z" style="fill:#75b6dc; stroke-width:0px;"></path><path d="M1513.63,328.31c21.53.11,43.05.23,64.58.38-1.34-38.3-2.68-76.6-4.02-114.9,11.11.04,22.21.07,33.33.12,15.24,38.4,30.66,76.87,46.26,115.42,26.67.26,53.32.55,79.99.89-.21-4.04-.42-8.06-.63-12.1-7.99-3.86-15.99-7.72-23.96-11.57-15.86-34.05-31.55-68.02-47.09-101.92,1.23-1.24,2.45-2.49,3.68-3.73-51.24-.48-103.26-.75-155.7-.85,1.19,42.76,2.38,85.52,3.57,128.27Z" style="fill:#fbfbfb; stroke-width:0px;"></path><path d="M1713.98,319.97c-16.58-.2-34.25-.39-53.44-.58-14.77-36.54-29.43-73.14-43.62-108.9,12.46.08,24.79.18,36.98.29,15.04,32.82,30.58,66.45,46.2,99.98l1.5,3.23,12.38,5.98ZM1567.85,318.62c-14.83-.1-29.66-.19-44.5-.26l-3.01-108.3c14.67.03,29.25.08,43.71.14l3.8,108.42Z" style="fill:#75b6dc; stroke-width:0px;"></path><path d="M1683.88,82.85c-11.48-10.96-22.9-21.9-34.29-32.82-56.55.15-113.1.31-169.64.47.1,3.86.19,7.73.29,11.59,8.81,5.97,17.64,11.94,26.49,17.92,1.11,40.01,2.23,80.01,3.34,120.02,52.44.1,104.46.37,155.7.85,7.58-7.66,15.15-15.33,22.7-23.01-1.53-31.68-3.05-63.36-4.58-95.03ZM1572.34,161.28c-.48-13.62-.96-27.25-1.43-40.88-15.18-5.87-30.33-11.73-45.45-17.58,32.28-.04,64.57-.06,96.86-.08.8,19.54,1.61,39.09,2.4,58.64-17.46-.03-34.93-.06-52.38-.09Z" style="fill:#fbfbfb; stroke-width:0px;"></path><path d="M1748.89,329.91c63.6.95,127.2,2.12,190.8,3.5-.31-4.09-.61-8.17-.91-12.26-11.2-15.69-22.34-31.32-33.44-46.93-30.96-.44-61.92-.84-92.88-1.2-1.3-21.24-2.6-42.48-3.91-63.72,27.54.21,55.09.44,82.63.7-.13-1.82-.26-3.65-.38-5.47-48.44-1.17-98.24-2.09-149.02-2.78,2.37,42.72,4.74,85.44,7.11,128.16Z" style="fill:#fbfbfb; stroke-width:0px;"></path><path d="M1927.92,323.16c-55.99-1.19-112.92-2.23-169.56-3.1l-6-108.15c15.62.22,31.1.47,46.38.74l4.31,70.28,9.3.11c28.07.33,57.58.71,87.79,1.13,9.23,12.97,18.49,25.97,27.79,39Z" style="fill:#75b6dc; stroke-width:0px;"></path><path d="M1805.46,158.92c-.81-13.2-1.62-26.4-2.43-39.61-17.01-4.21-34-8.41-50.98-12.58,47.12.03,94.24.09,141.35.17,8.72-15.18,17.4-30.39,26.02-45.63-.3-3.96-.59-7.91-.89-11.87-61.73.17-123.46.34-185.18.51,2.8,50.62,5.61,101.24,8.42,151.86,50.78.7,100.58,1.61,149.02,2.78-1.05-15.07-2.11-30.14-3.17-45.21-27.39-.15-54.78-.29-82.17-.41Z" style="fill:#fbfbfb; stroke-width:0px;"></path><path d="M1983.38,216.41c26.87.31,53.73.65,80.6,1.01,1.84,20.87,3.68,41.76,5.52,62.63-18.03-.35-36.07-.67-54.1-1-.74-9.03-1.49-18.05-2.24-27.08-21.67-.33-43.35-.64-65.02-.94,1.27,16.7,2.54,33.4,3.81,50.1,15.26,11.15,30.58,22.34,45.95,33.58,33.62.72,67.24,1.52,100.85,2.36,12.97-10.21,25.89-20.45,38.76-30.74-2.95-31.11-5.9-62.22-8.84-93.33-50.13-2.49-103.03-4.56-158.1-6.27,4.28,3.23,8.53,6.44,12.82,9.68Z" style="fill:#fbfbfb; stroke-width:0px;"></path><path d="M2095.38,326.98c-33.09-.83-63.95-1.55-94.13-2.2-13.27-9.7-26.5-19.37-39.69-29l-2.63-34.59c15,.21,30,.43,45.01.65.49,5.9,2.23,27.06,2.23,27.06l9.05.16c18.03.32,36.06.65,54.09,1l11.13.21-6.15-69.74c15.44.65,30.52,1.34,45.23,2.05l7.52,79.32c-10.16,8.11-20.78,16.52-31.65,25.09Z" style="fill:#75b6dc; stroke-width:0px;"></path><path d="M2083.79,163c-26.03-.42-52.07-.83-78.09-1.22-1.19-14.4-2.39-28.8-3.58-43.2-17.05-5.37-34.09-10.71-51.08-16.03,34.27.06,68.54.14,102.81.22.72,8.13,1.44,16.27,2.16,24.41,21.51.1,43.03.21,64.54.33-1.45-15.24-2.89-30.47-4.34-45.72-3.38-2.5-6.75-5.01-10.11-7.51-11.46-8.49-22.9-16.96-34.31-25.41-25.24.07-50.47.13-75.71.21-9.3.03-18.61.04-27.92.07-10.94,10.63-21.93,21.22-32.95,31.78,2.67,35.04,5.33,70.1,7.99,105.14,9.09,6.86,18.22,13.76,27.35,20.65,55.07,1.71,107.97,3.79,158.1,6.27-.6-6.28-1.19-12.56-1.79-18.84-14.41-10.43-28.77-20.82-43.08-31.16Z" style="fill:#fbfbfb; stroke-width:0px;"></path><path d="M2267.99,183.19c-32.71-10.72-65.31-21.29-97.81-31.75,65.05.55,130.09,1.19,195.12,1.91,1.88,15.9,3.76,31.81,5.63,47.71,40.92.7,81.83,1.45,122.75,2.25-3.87-30.09-7.74-60.18-11.61-90.26-28.96-21.91-57.74-43.57-86.34-65.01-65.21.18-130.43.34-195.64.52-20.14,20.53-40.43,40.9-60.86,61.14,3.37,34.79,6.74,69.59,10.11,104.38,43.28,2.28,84.37,4.88,122.85,7.83-1.4-12.9-2.8-25.81-4.2-38.71Z" style="fill:#fbfbfb; stroke-width:0px;"></path><path d="M2529.47,481.55c-6.3-48.89-12.57-97.76-18.86-146.65-28.31-21.24-56.47-42.23-84.46-62.99-49.69-1.74-99.38-3.38-149.07-4.91-1.63-15.03-3.26-30.07-4.9-45.1-38.47-2.95-79.56-5.55-122.85-7.83,3.16,32.64,6.32,65.29,9.48,97.93,25.95,19.78,52.05,39.72,78.3,59.85,51.54,1.71,103.07,3.57,154.6,5.58,4.81,40.81,9.62,81.61,14.43,122.41-34.79-1.87-69.57-3.65-104.37-5.35-1.9-17.5-3.8-35.02-5.71-52.52-41.71-1.79-83.43-3.46-125.16-5,3.11,32.13,6.22,64.27,9.34,96.4,21.67,16.1,43.44,32.33,65.3,48.69,8.35,6.25,16.71,12.52,25.09,18.82,65.2,3.76,130.38,7.92,195.54,12.46,24.47-18.83,48.76-37.81,72.89-56.96-3.21-24.94-6.42-49.88-9.62-74.82Z" style="fill:#fbfbfb; stroke-width:0px;"></path><path d="M2463.11,603.09c-62.88-4.37-126.38-8.42-188.86-12.03-7.57-5.69-15.14-11.36-22.68-17.01-20.28-15.18-41.04-30.66-61.77-46.07l-7.81-80.6c35.44,1.33,70.7,2.74,105.09,4.21,1.43,13.1,2.85,26.19,4.27,39.29l1.43,13.18,8.53.42c34.09,1.66,69.18,3.46,104.32,5.34l11.86.64-16.83-142.69-8.54-.33c-49.27-1.93-100.21-3.77-151.45-5.48-23.51-18.02-47.8-36.59-72.3-55.27l-7.94-82.01c36.4,1.99,70.86,4.19,102.73,6.57l4.94,45.49,8.69.27c48.96,1.51,98.04,3.12,145.92,4.8,26.15,19.4,52.54,39.08,78.54,58.57l5.38,41.85c4.31,33.54,8.62,67.08,12.94,100.62l.13,1.05c2.92,22.73,5.84,45.45,8.76,68.17-21.36,16.92-43.31,34.06-65.34,51.04Z" style="fill:#75b6dc; stroke-width:0px;"></path><path d="M1011.67,484.79c.23-8.1.47-16.21.71-24.31-5.05.08-10.1.16-15.14.25.08-2.53.15-5.06.23-7.58-2.96.07-5.92.14-8.86.21-.34,10.62-.67,21.23-1.01,31.86,8.03-.15,16.06-.28,24.08-.41Z" style="fill:none; stroke-width:0px;"></path><path d="M922.99,462.08c-.43-2.36-.85-4.73-1.28-7.09-3.78.1-7.53.19-11.27.29-.61,2.36-1.22,4.72-1.83,7.09,4.79-.1,9.58-.19,14.38-.29Z" style="fill:none; stroke-width:0px;"></path><path d="M1298.27,447.51c.33,0,.66,0,.99-.01-.33-.77-.67-1.54-1-2.31,0,.77,0,1.55,0,2.32Z" style="fill:none; stroke-width:0px;"></path><path d="M1324.24,447.17c-.45,0-.91.01-1.36.02.46,1.06.92,2.13,1.38,3.19,0-1.07-.01-2.14-.02-3.21Z" style="fill:none; stroke-width:0px;"></path><path d="M1170.63,449.53c1.37-.03,2.74-.05,4.11-.08.03-2.63.06-5.25.09-7.88-1.39,2.65-2.8,5.3-4.2,7.96Z" style="fill:none; stroke-width:0px;"></path><path d="M1136.16,450.18c1.42-.03,2.83-.05,4.25-.08-1.37-2.72-2.75-5.45-4.12-8.17-.04,2.75-.08,5.5-.13,8.26Z" style="fill:none; stroke-width:0px;"></path><path d="M917.11,429.45c-2.22,8.61-4.44,17.22-6.66,25.83,3.74-.1,7.49-.19,11.27-.29-1.54-8.51-3.08-17.02-4.61-25.54Z" style="fill:none; stroke-width:0px;"></path><path d="M667.35,462.26c1.81-.06,3.66-.12,5.54-.18.24-3.64.48-7.29.72-10.93-2.08,3.69-4.17,7.41-6.26,11.1Z" style="fill:none; stroke-width:0px;"></path><path d="M817.74,457.76c.87-.02,1.73-.05,2.6-.07-.76-2.03-1.53-4.05-2.29-6.09-.1,2.05-.21,4.11-.31,6.16Z" style="fill:none; stroke-width:0px;"></path><path d="M634.31,463.33c1.78-.06,3.62-.12,5.54-.18-1.59-3.6-3.19-7.2-4.77-10.8-.25,3.66-.51,7.32-.77,10.99Z" style="fill:none; stroke-width:0px;"></path><path d="M752.19,466.13c-.35-2.15-.69-4.3-1.03-6.45-3.91.12-7.77.23-11.55.34-.6,2.17-1.19,4.34-1.78,6.51,4.79-.13,9.58-.27,14.37-.4Z" style="fill:none; stroke-width:0px;"></path><path d="M746.93,433.25c-2.43,8.92-4.88,17.85-7.32,26.77,3.78-.11,7.64-.23,11.55-.34-1.41-8.81-2.83-17.62-4.23-26.43Z" style="fill:none; stroke-width:0px;"></path><path d="M1915.48,456.73c1.59.16,3.15.33,4.7.49-.23-3.19-.46-6.38-.69-9.56-1.33,3.03-2.68,6.05-4.01,9.07Z" style="fill:none; stroke-width:0px;"></path><path d="M1881.43,453.84c1.24.09,2.47.18,3.7.27-1.39-2.45-2.79-4.91-4.18-7.36.16,2.37.32,4.73.48,7.1Z" style="fill:none; stroke-width:0px;"></path><path d="M669.49,513.77c7.45-.26,14.9-.51,22.35-.76,1.09-17.21,2.18-34.42,3.28-51.63-7.85.24-15.27.48-22.23.7-1.13,17.23-2.27,34.46-3.4,51.69Z" style="fill:#fbfbfb; stroke-width:0px;"></path><path d="M676.8,402.61c-7.24,12.91-14.5,25.84-21.79,38.78-5.53-12.56-11.04-25.14-16.53-37.73-7.34.21-14.67.41-22.01.63-1.44,19.93-2.87,39.86-4.31,59.79,5.28-.18,12.73-.43,22.15-.74.25-3.66.51-7.32.77-10.99,1.58,3.61,3.18,7.2,4.77,10.8,8-.26,17.2-.56,27.5-.89,2.08-3.7,4.18-7.41,6.26-11.1-.24,3.64-.48,7.28-.72,10.93,6.96-.22,14.38-.45,22.23-.7,1.26-19.78,2.51-39.57,3.77-59.35-7.36.19-14.72.38-22.09.58Z" style="fill:#fbfbfb; stroke-width:0px;"></path><path d="M608.43,515.98c7.42-.28,14.86-.56,22.28-.83,1.21-17.27,2.41-34.54,3.61-51.82-9.42.31-16.87.56-22.15.74-1.25,17.3-2.49,34.6-3.74,51.91Z" style="fill:#fbfbfb; stroke-width:0px;"></path><path d="M651.72,490.01c5.23-9.27,10.43-18.51,15.64-27.75-10.3.33-19.5.63-27.5.89,3.95,8.96,7.89,17.92,11.86,26.86Z" style="fill:#fbfbfb; stroke-width:0px;"></path><path d="M733.34,401.17c-5.42,19.83-10.88,39.68-16.36,59.54,7.26-.22,14.81-.45,22.63-.68,2.45-8.93,4.89-17.85,7.32-26.77,1.4,8.81,2.82,17.62,4.23,26.43,7.32-.22,14.86-.44,22.61-.66-3.18-19.52-6.34-39.04-9.48-58.59-10.32.24-20.64.49-30.96.74Z" style="fill:#fbfbfb; stroke-width:0px;"></path><path d="M752.19,466.13c-4.79.13-9.58.27-14.37.4.6-2.17,1.19-4.34,1.78-6.51-7.83.23-15.37.46-22.63.68-4.77,17.3-9.56,34.61-14.38,51.94,7.58-.24,15.16-.49,22.74-.73,2.28-8.28,4.56-16.55,6.84-24.83,7.76-.23,15.53-.46,23.29-.68,1.32,8.16,2.65,16.31,3.98,24.46,7.58-.22,15.16-.45,22.74-.66-2.83-17.05-5.63-34.12-8.41-51.19-7.75.23-15.29.45-22.61.66.35,2.15.69,4.3,1.03,6.45Z" style="fill:#fbfbfb; stroke-width:0px;"></path><path d="M846.5,398.65c-.92,19.22-1.83,38.44-2.74,57.66-7.18-19.03-14.31-38.09-21.4-57.16-7.87.17-15.73.33-23.61.51-1.03,19.58-2.06,39.15-3.1,58.73,7.21-.21,14.57-.41,22.08-.62.1-2.05.21-4.11.31-6.16.76,2.03,1.53,4.06,2.29,6.09,14.6-.41,29.75-.82,45.39-1.24.88-19.41,1.76-38.82,2.63-58.22-7.29.14-14.58.28-21.86.42Z" style="fill:#fbfbfb; stroke-width:0px;"></path><path d="M792.94,509.9c7.4-.22,14.8-.41,22.2-.62.86-17.17,1.73-34.34,2.59-51.51-7.51.21-14.87.42-22.08.62-.9,17.17-1.81,34.34-2.72,51.51Z" style="fill:#fbfbfb; stroke-width:0px;"></path><path d="M839.5,508.63c7.99-.21,15.99-.41,23.98-.61-.03-.04-.05-.09-.08-.13.78-17.15,1.55-34.29,2.33-51.44-15.63.42-30.78.83-45.39,1.24,6.35,16.99,12.73,33.98,19.16,50.94Z" style="fill:#fbfbfb; stroke-width:0px;"></path><path d="M902.89,397.58c-5.01,19.42-10.04,38.85-15.1,58.29,7.46-.2,15.01-.39,22.66-.59,2.22-8.61,4.44-17.22,6.66-25.83,1.53,8.52,3.07,17.03,4.61,25.54,7.45-.19,14.98-.38,22.59-.57-3.51-19.12-6.99-38.24-10.44-57.38-10.33.17-20.65.35-30.97.54Z" style="fill:#fbfbfb; stroke-width:0px;"></path><path d="M922.99,462.08c-4.8.1-9.59.19-14.38.29.61-2.36,1.22-4.72,1.83-7.09-7.65.2-15.2.39-22.66.59-4.5,17.29-9.02,34.59-13.56,51.9,7.58-.18,15.17-.36,22.74-.54,2.13-8.18,4.26-16.36,6.38-24.54,7.76-.17,15.52-.33,23.29-.5,1.48,8.1,2.95,16.18,4.44,24.28,7.58-.17,15.16-.32,22.74-.47-3.2-17.19-6.37-34.38-9.53-51.58-7.61.19-15.14.38-22.59.57.43,2.36.85,4.73,1.28,7.09Z" style="fill:#fbfbfb; stroke-width:0px;"></path><path d="M997.85,440.5c-.13,4.21-.26,8.43-.39,12.64,12.28-.29,24.72-.57,37.29-.85.11-4.11.22-8.23.33-12.34-12.41.17-24.81.36-37.23.55Z" style="fill:#fbfbfb; stroke-width:0px;"></path><path d="M989.78,416.32c7.96-.12,15.93-.24,23.89-.35-.08,2.8-.16,5.6-.24,8.4,7.36-.11,14.72-.21,22.09-.32.14-5.68.3-11.38.45-17.07-4.66-3.75-9.32-7.51-13.97-11.26-13.13.17-26.27.36-39.39.55-4.89,3.9-9.78,7.8-14.66,11.7-.52,15.31-1.05,30.61-1.57,45.91,7.35-.18,14.76-.36,22.24-.53.39-12.34.78-24.69,1.18-37.03Z" style="fill:#fbfbfb; stroke-width:0px;"></path><path d="M997.23,460.73c5.04-.08,10.09-.16,15.14-.25-.24,8.1-.48,16.21-.71,24.31-8.02.13-16.05.27-24.08.41.34-10.62.67-21.24,1.01-31.86-7.47.18-14.89.35-22.24.53-.46,13.5-.93,27-1.39,40.49,4.61,3.71,9.21,7.42,13.83,11.13,13.37-.25,26.74-.49,40.11-.71,4.92-3.87,9.84-7.75,14.75-11.62.36-13.63.72-27.26,1.08-40.89-12.57.28-25.01.57-37.29.85-.08,2.53-.15,5.06-.23,7.58Z" style="fill:#fbfbfb; stroke-width:0px;"></path><path d="M1044.12,504.39c19.39-.3,38.78-.57,58.18-.82.12-6.69.26-13.39.38-20.09-11.93.15-23.88.3-35.81.47.19-8.09.37-16.18.56-24.27,10.12-.14,20.24-.26,30.36-.38.06-2.79.11-5.58.17-8.37-17.7.36-35.22.74-52.5,1.12-.44,17.45-.88,34.89-1.33,52.34Z" style="fill:#fbfbfb; stroke-width:0px;"></path><path d="M1067.89,439.5c.19-8.08.38-16.18.56-24.26,11.7-.14,23.39-.28,35.08-.4.13-6.69.26-13.39.38-20.09-19,.2-38.01.41-57.01.64-.48,18.88-.96,37.77-1.44,56.65,17.28-.38,34.79-.75,52.5-1.12.08-3.93.16-7.86.23-11.8-10.1.12-20.19.24-30.3.36Z" style="fill:#fbfbfb; stroke-width:0px;"></path><path d="M1113.06,503.43c7.43-.09,14.86-.17,22.29-.26.26-17.66.54-35.33.81-53-7.41.14-14.8.29-22.16.43l-.93,52.82Z" style="fill:#fbfbfb; stroke-width:0px;"></path><path d="M1175.34,394.12c-6.54,12.5-13.11,25-19.69,37.52-6.24-12.4-12.46-24.8-18.65-37.2-7.34.06-14.68.13-22.02.21l-.99,55.96c7.36-.15,14.75-.29,22.16-.43.04-2.75.08-5.5.13-8.26,1.37,2.72,2.75,5.45,4.12,8.17,10.03-.19,20.11-.38,30.22-.56,1.4-2.65,2.8-5.31,4.2-7.96-.03,2.63-.06,5.25-.09,7.88,7.39-.13,14.81-.26,22.24-.39.15-18.36.31-36.73.46-55.09-7.37.05-14.73.1-22.1.15Z" style="fill:#fbfbfb; stroke-width:0px;"></path><path d="M1174.16,502.79c7.45-.06,14.91-.13,22.37-.18.15-17.85.3-35.69.45-53.54-7.43.13-14.84.26-22.24.39-.19,17.78-.39,35.56-.58,53.33Z" style="fill:#fbfbfb; stroke-width:0px;"></path><path d="M1155.03,479.11c5.22-9.87,10.41-19.72,15.6-29.58-10.11.18-20.19.37-30.22.56,4.86,9.67,9.73,19.34,14.63,29.01Z" style="fill:#fbfbfb; stroke-width:0px;"></path><path d="M1207.28,502.52c19.39-.15,38.78-.26,58.18-.34,0-6.68,0-13.36.01-20.04-11.93.05-23.88.11-35.81.19.04-8.07.07-16.13.12-24.19,10.12-.06,20.24-.12,30.36-.16,0-3.31,0-6.62.01-9.93-17.54.26-35.05.54-52.48.83-.13,17.88-.26,35.76-.38,53.64Z" style="fill:#fbfbfb; stroke-width:0px;"></path><path d="M1229.87,438.01c.04-8.07.08-16.13.12-24.19,11.69-.07,23.38-.12,35.08-.17,0-6.68,0-13.36.01-20.04-19,.07-38.01.17-57.01.29-.13,18.33-.26,36.65-.39,54.98,17.43-.29,34.94-.57,52.48-.83,0-3.39,0-6.79.01-10.18-10.1.04-20.2.1-30.3.15Z" style="fill:#fbfbfb; stroke-width:0px;"></path><path d="M1324.25,450.38c-.46-1.06-.92-2.13-1.38-3.19-7.87.1-15.74.2-23.62.3,7.8,18.17,15.64,36.34,23.54,54.52,7.99-.01,15.99-.02,23.98-.02-.03-.05-.05-.09-.08-.14-.16-18.31-.31-36.62-.47-54.94-7.33.08-14.66.17-22,.26,0,1.07.01,2.14.02,3.21Z" style="fill:#fbfbfb; stroke-width:0px;"></path><path d="M1323.91,393.44c.11,17.92.21,35.83.33,53.74,7.34-.09,14.67-.18,22-.26-.15-17.84-.31-35.67-.46-53.5-7.29.01-14.58.02-21.87.03Z" style="fill:#fbfbfb; stroke-width:0px;"></path><path d="M1299.77,393.5c-7.87.01-15.74.04-23.62.07.01,18.08.02,36.16.04,54.25,7.36-.11,14.72-.21,22.08-.31,0-.77,0-1.55,0-2.32.33.77.67,1.54,1,2.31,7.88-.1,15.75-.21,23.62-.3-7.75-17.9-15.45-35.8-23.11-53.69Z" style="fill:#fbfbfb; stroke-width:0px;"></path><path d="M1276.22,502.13c7.4-.03,14.81-.05,22.21-.07-.05-18.18-.11-36.37-.16-54.56-7.36.1-14.72.2-22.08.31.01,18.11.02,36.22.04,54.32Z" style="fill:#fbfbfb; stroke-width:0px;"></path><path d="M1422.64,413.52c-.11-6.69-.23-13.37-.34-20.06-21.94-.05-43.88-.06-65.82-.05.07,6.68.13,13.36.19,20.04,7.31,0,14.61,0,21.92,0,.14,11.04.27,22.08.4,33.12,7.42-.07,14.83-.14,22.23-.2-.16-10.96-.32-21.93-.48-32.89,7.3,0,14.6.03,21.91.04Z" style="fill:#fbfbfb; stroke-width:0px;"></path><path d="M1379.66,502.01c7.46.01,14.92.03,22.37.05-.27-18.56-.54-37.12-.82-55.69-7.39.06-14.8.13-22.23.2.22,18.48.45,36.96.67,55.44Z" style="fill:#fbfbfb; stroke-width:0px;"></path><path d="M1472.09,446.63c4.85,3.84,9.7,7.67,14.56,11.5,10.09.06,20.19.13,30.28.2.23,8.08.45,16.16.68,24.26-7.49-.06-14.98-.12-22.47-.16-.08-2.93-.15-5.87-.22-8.8-7.41-.05-14.82-.09-22.22-.13.13,5.84.27,11.67.4,17.52,4.87,3.81,9.74,7.62,14.63,11.45,12.83.09,25.67.19,38.5.3,4.63-3.75,9.26-7.49,13.88-11.24-.42-13.92-.84-27.83-1.26-41.75-1.68-1.34-3.35-2.67-5.03-4.01-20.3,0-40.91.06-61.75.15,0,.24.01.48.02.72Z" style="fill:#fbfbfb; stroke-width:0px;"></path><path d="M1494.02,438.03c-.2-8.08-.41-16.16-.61-24.25,7.43.04,14.87.09,22.3.13.08,2.72.15,5.45.23,8.17,7.36.05,14.72.09,22.08.15-.17-5.64-.34-11.28-.5-16.92-4.81-3.82-9.6-7.64-14.39-11.46-12.68-.07-25.36-.14-38.03-.2-4.63,3.79-9.29,7.58-13.94,11.37.31,13.63.62,27.25.93,40.88,20.84-.09,41.45-.14,61.75-.15-3.15-2.51-6.3-5.03-9.44-7.54-10.12-.07-20.24-.14-30.37-.19Z" style="fill:#fbfbfb; stroke-width:0px;"></path><path d="M1576.57,462.94c.46,13.45.93,26.9,1.39,40.34,7.53.08,15.06.18,22.59.27-.49-13.41-.99-26.82-1.48-40.23,2.09-5.79,4.16-11.58,6.24-17.37-11.83-.07-23.81-.12-35.92-.15,2.39,5.71,4.78,11.42,7.18,17.14Z" style="fill:#fbfbfb; stroke-width:0px;"></path><path d="M1600.25,394.42c-4.43,13.51-8.88,27.01-13.36,40.5-5.52-13.59-11.02-27.17-16.48-40.75-7.53-.06-15.08-.12-22.62-.16,7.16,17.24,14.37,34.51,21.6,51.78,12.11.03,24.09.08,35.92.15,6.14-17.09,12.26-34.19,18.32-51.31-7.8-.08-15.59-.15-23.38-.22Z" style="fill:#fbfbfb; stroke-width:0px;"></path><path d="M1658.21,439.56c-.35-8.12-.7-16.25-1.06-24.38,7.42.09,14.86.19,22.29.27.13,2.74.25,5.49.38,8.23,7.36.09,14.72.19,22.08.3-.27-5.68-.55-11.36-.82-17.03-4.88-3.88-9.74-7.75-14.6-11.62-12.68-.15-25.35-.3-38.03-.43-4.58,3.78-9.14,7.55-13.73,11.33.55,13.32,1.09,26.64,1.64,39.95,20.91.19,41.27.45,60.95.78-2.91-2.33-5.83-4.66-8.74-6.99-10.13-.15-20.25-.28-30.37-.41Z" style="fill:#fbfbfb; stroke-width:0px;"></path><path d="M1636.44,448.05c4.92,3.89,9.85,7.78,14.77,11.67,10.09.13,20.19.27,30.28.42.37,8.14.75,16.27,1.12,24.41-7.48-.12-14.98-.24-22.46-.34-.13-2.95-.26-5.9-.39-8.85-7.4-.11-14.81-.21-22.21-.31.24,5.87.48,11.74.73,17.61,4.94,3.87,9.89,7.74,14.84,11.62,12.83.2,25.67.41,38.5.63,4.56-3.73,9.11-7.47,13.66-11.2-.67-14.01-1.35-28.01-2.03-42.02-1.98-1.58-3.95-3.16-5.93-4.74-19.69-.33-40.04-.59-60.95-.78.03.62.05,1.24.08,1.87Z" style="fill:#fbfbfb; stroke-width:0px;"></path><path d="M1778.12,416.91c-.38-6.77-.76-13.55-1.16-20.33-21.94-.34-43.87-.65-65.81-.95.33,6.76.67,13.5,1,20.25,7.31.11,14.6.21,21.91.32.55,10.5,1.09,21,1.64,31.51,7.53.17,14.94.36,22.23.56-.57-10.57-1.15-21.15-1.72-31.72,7.31.12,14.6.24,21.91.36Z" style="fill:#fbfbfb; stroke-width:0px;"></path><path d="M1738.72,505.77c7.45.15,14.9.3,22.36.45-1.05-19.31-2.1-38.63-3.15-57.95-7.28-.2-14.69-.38-22.23-.56,1,19.35,2.01,38.7,3.02,58.05Z" style="fill:#fbfbfb; stroke-width:0px;"></path><path d="M1793.96,506.93c19.39.43,38.78.9,58.17,1.38-.43-6.8-.87-13.6-1.31-20.41-11.93-.29-23.86-.56-35.8-.83-.5-8.19-.98-16.38-1.48-24.57,10.12.21,20.23.42,30.35.65-.25-3.88-.49-7.76-.74-11.63-16.41-.85-33.96-1.59-52.52-2.24,1.11,19.22,2.22,38.43,3.33,57.65Z" style="fill:#fbfbfb; stroke-width:0px;"></path><path d="M1812.31,442.06c-.5-8.19-.98-16.38-1.48-24.57,11.69.21,23.38.42,35.07.65-.43-6.8-.87-13.6-1.31-20.4-19-.35-38-.68-57-.98,1.01,17.5,2.02,35.01,3.04,52.52,18.56.64,36.12,1.39,52.52,2.24-.19-2.95-.37-5.89-.56-8.84-10.09-.22-20.19-.42-30.28-.62Z" style="fill:#fbfbfb; stroke-width:0px;"></path><path d="M1862.89,508.58c7.42.2,14.85.39,22.27.59-1.24-18.44-2.49-36.89-3.73-55.33-7.1-.51-14.51-.99-22.2-1.44,1.22,18.73,2.44,37.46,3.66,56.18Z" style="fill:#fbfbfb; stroke-width:0px;"></path><path d="M1902.84,485.34c4.24-9.52,8.44-19.06,12.64-28.6-9.32-.94-19.46-1.82-30.35-2.62,5.89,10.4,11.79,20.8,17.71,31.22Z" style="fill:#fbfbfb; stroke-width:0px;"></path><path d="M1938.1,399.6c-7.36-.16-14.72-.31-22.09-.47-5.49,12.6-11,25.18-16.55,37.75-7.28-12.86-14.54-25.7-21.77-38.52-7.34-.15-14.67-.29-22.01-.43,1.18,18.16,2.37,36.31,3.55,54.47,7.7.45,15.1.93,22.2,1.44-.16-2.37-.32-4.73-.48-7.1,1.39,2.45,2.79,4.91,4.18,7.36,10.89.81,21.03,1.68,30.35,2.62,1.33-3.03,2.68-6.05,4.01-9.07.23,3.19.46,6.38.69,9.56,8.15.87,15.63,1.8,22.39,2.8l-4.46-60.42Z" style="fill:#fbfbfb; stroke-width:0px;"></path><path d="M1920.17,457.23c1.27,17.68,2.53,35.36,3.8,53.04,7.45.22,14.9.43,22.35.65l-3.76-50.89c-6.76-.99-14.24-1.92-22.39-2.8Z" style="fill:#fbfbfb; stroke-width:0px;"></path><path d="M591.46,451.49c-49.34,1.63-98.68,3.41-148.01,5.34-.65,7.31-1.3,14.62-1.95,21.92,26.8-1.34,113.45-5.58,148.39-6.12.52-7.05,1.05-14.1,1.57-21.15Z" style="fill:#fbfbfb; stroke-width:0px;"></path><path d="M1965.31,451.49c49.34,1.63,98.68,3.41,148.01,5.34.65,7.31,1.3,14.62,1.95,21.92-26.8-1.34-113.45-5.58-148.39-6.12-.52-7.05-1.05-14.1-1.57-21.15Z" style="fill:#fbfbfb; stroke-width:0px;"></path><path d="M589.89,472.63c-34.95.54-121.59,4.78-148.39,6.12,0,.03,0,.07,0,.1l148.36-5.59c.02-.21.03-.42.05-.64Z" style="fill:#fbfbfb; stroke-width:0px;"></path></svg>